<?xml version="1.0" encoding="us-ascii" standalone="no"?><svg xmlns="http://www.w3.org/2000/svg" xmlns:xlink="http://www.w3.org/1999/xlink" contentStyleType="text/css" height="2162px" preserveAspectRatio="none" style="width:1772px;height:2162px;background:#FFFFFF;" version="1.1" viewBox="0 0 1772 2162" width="1772px" zoomAndPan="magnify"><defs/><g><rect fill="#DDDDDD" height="2143.8047" style="stroke:#181818;stroke-width:0.5;" width="240" x="26" y="6"/><text fill="#000000" font-family="sans-serif" font-size="13" font-weight="bold" lengthAdjust="spacing" textLength="57" x="117.5" y="18.0669">Invoker</text><rect fill="#DDDDDD" height="2143.8047" style="stroke:#181818;stroke-width:0.5;" width="1248" x="502" y="6"/><text fill="#000000" font-family="sans-serif" font-size="13" font-weight="bold" lengthAdjust="spacing" textLength="68" x="1092" y="18.0669">Executor</text><rect fill="#005500" height="518.3203" style="stroke:#181818;stroke-width:1.0;" width="10" x="1438" y="1282.5938"/><rect fill="none" height="468.9141" style="stroke:#000000;stroke-width:1.5;" width="1267.5" x="10" y="174.6953"/><rect fill="none" height="119.6641" style="stroke:#000000;stroke-width:1.5;" width="413.5" x="20" y="198.8281"/><rect fill="none" height="304.1172" style="stroke:#000000;stroke-width:1.5;" width="917" x="350.5" y="332.4922"/><rect fill="none" height="1409.8984" style="stroke:#000000;stroke-width:1.5;" width="1746" x="20" y="657.6094"/><rect fill="none" height="1067.7734" style="stroke:#000000;stroke-width:1.5;" width="1405.5" x="350.5" y="829.6719"/><line style="stroke:#181818;stroke-width:0.5;stroke-dasharray:5.0,5.0;" x1="70" x2="70" y1="87.4297" y2="2084.5078"/><line style="stroke:#181818;stroke-width:0.5;stroke-dasharray:5.0,5.0;" x1="228" x2="228" y1="87.4297" y2="2084.5078"/><line style="stroke:#181818;stroke-width:0.5;stroke-dasharray:5.0,5.0;" x1="391.5" x2="391.5" y1="87.4297" y2="2084.5078"/><line style="stroke:#181818;stroke-width:0.5;stroke-dasharray:5.0,5.0;" x1="556" x2="556" y1="417.5547" y2="2084.5078"/><line style="stroke:#181818;stroke-width:0.5;stroke-dasharray:5.0,5.0;" x1="697" x2="697" y1="87.4297" y2="2084.5078"/><line style="stroke:#181818;stroke-width:0.5;stroke-dasharray:5.0,5.0;" x1="855.5" x2="855.5" y1="87.4297" y2="2084.5078"/><line style="stroke:#181818;stroke-width:0.5;stroke-dasharray:5.0,5.0;" x1="996.5" x2="996.5" y1="467" y2="2084.5078"/><line style="stroke:#181818;stroke-width:0.5;stroke-dasharray:5.0,5.0;" x1="1142.5" x2="1142.5" y1="87.4297" y2="2084.5078"/><line style="stroke:#181818;stroke-width:0.5;stroke-dasharray:5.0,5.0;" x1="1227.5" x2="1227.5" y1="508.2969" y2="2084.5078"/><line style="stroke:#181818;stroke-width:0.5;stroke-dasharray:5.0,5.0;" x1="1333" x2="1333" y1="87.4297" y2="2084.5078"/><line style="stroke:#181818;stroke-width:0.5;stroke-dasharray:5.0,5.0;" x1="1443" x2="1443" y1="87.4297" y2="2084.5078"/><line style="stroke:#181818;stroke-width:0.5;stroke-dasharray:5.0,5.0;" x1="1631" x2="1631" y1="87.4297" y2="2084.5078"/><line style="stroke:#181818;stroke-width:0.5;stroke-dasharray:5.0,5.0;" x1="1706" x2="1706" y1="87.4297" y2="2084.5078"/><rect fill="#E2E2F0" height="46.5938" rx="2.5" ry="2.5" style="stroke:#181818;stroke-width:0.5;" width="80" x="30" y="39.8359"/><text fill="#000000" font-family="sans-serif" font-size="14" lengthAdjust="spacing" textLength="54" x="43" y="59.8311">Invoker</text><text fill="#000000" font-family="sans-serif" font-size="14" lengthAdjust="spacing" textLength="66" x="37" y="76.1279">app logic</text><rect fill="#E2E2F0" height="46.5938" rx="2.5" ry="2.5" style="stroke:#181818;stroke-width:0.5;" width="80" x="30" y="2083.5078"/><text fill="#000000" font-family="sans-serif" font-size="14" lengthAdjust="spacing" textLength="54" x="43" y="2103.5029">Invoker</text><text fill="#000000" font-family="sans-serif" font-size="14" lengthAdjust="spacing" textLength="66" x="37" y="2119.7998">app logic</text><rect fill="#E2E2F0" height="30.2969" rx="2.5" ry="2.5" style="stroke:#181818;stroke-width:0.5;" width="68" x="194" y="56.1328"/><text fill="#000000" font-family="sans-serif" font-size="14" lengthAdjust="spacing" textLength="54" x="201" y="76.1279">Invoker</text><rect fill="#E2E2F0" height="30.2969" rx="2.5" ry="2.5" style="stroke:#181818;stroke-width:0.5;" width="68" x="194" y="2083.5078"/><text fill="#000000" font-family="sans-serif" font-size="14" lengthAdjust="spacing" textLength="54" x="201" y="2103.5029">Invoker</text><rect fill="#E2E2F0" height="30.2969" rx="2.5" ry="2.5" style="stroke:#181818;stroke-width:0.5;" width="63" x="360.5" y="56.1328"/><text fill="#000000" font-family="sans-serif" font-size="14" lengthAdjust="spacing" textLength="49" x="367.5" y="76.1279">Broker</text><rect fill="#E2E2F0" height="30.2969" rx="2.5" ry="2.5" style="stroke:#181818;stroke-width:0.5;" width="63" x="360.5" y="2083.5078"/><text fill="#000000" font-family="sans-serif" font-size="14" lengthAdjust="spacing" textLength="49" x="367.5" y="2103.5029">Broker</text><rect fill="#E2E2F0" height="46.5938" rx="2.5" ry="2.5" style="stroke:#181818;stroke-width:0.5;" width="100" x="506" y="2083.5078"/><text fill="#000000" font-family="sans-serif" font-size="14" lengthAdjust="spacing" textLength="64" x="524" y="2103.5029">Executor</text><text fill="#000000" font-family="sans-serif" font-size="14" lengthAdjust="spacing" textLength="86" x="513" y="2119.7998">MQTT client</text><rect fill="#E2E2F0" height="30.2969" rx="2.5" ry="2.5" style="stroke:#181818;stroke-width:0.5;" width="78" x="658" y="56.1328"/><text fill="#000000" font-family="sans-serif" font-size="14" lengthAdjust="spacing" textLength="64" x="665" y="76.1279">Executor</text><rect fill="#E2E2F0" height="30.2969" rx="2.5" ry="2.5" style="stroke:#181818;stroke-width:0.5;" width="78" x="658" y="2083.5078"/><text fill="#000000" font-family="sans-serif" font-size="14" lengthAdjust="spacing" textLength="64" x="665" y="2103.5029">Executor</text><path d="M814.5,61.1328 L897.5,61.1328 C902.5,61.1328 902.5,74.2813 902.5,74.2813 C902.5,74.2813 902.5,87.4297 897.5,87.4297 L814.5,87.4297 C809.5,87.4297 809.5,74.2813 809.5,74.2813 C809.5,74.2813 809.5,61.1328 814.5,61.1328 " fill="#E2E2F0" style="stroke:#181818;stroke-width:0.5;"/><path d="M897.5,61.1328 C892.5,61.1328 892.5,74.2813 892.5,74.2813 C892.5,87.4297 897.5,87.4297 897.5,87.4297 " fill="none" style="stroke:#181818;stroke-width:0.5;"/><text fill="#000000" font-family="sans-serif" font-size="14" lengthAdjust="spacing" textLength="73" x="814.5" y="79.1279">MsgQueue</text><path d="M814.5,2083.5078 L897.5,2083.5078 C902.5,2083.5078 902.5,2096.6563 902.5,2096.6563 C902.5,2096.6563 902.5,2109.8047 897.5,2109.8047 L814.5,2109.8047 C809.5,2109.8047 809.5,2096.6563 809.5,2096.6563 C809.5,2096.6563 809.5,2083.5078 814.5,2083.5078 " fill="#E2E2F0" style="stroke:#181818;stroke-width:0.5;"/><path d="M897.5,2083.5078 C892.5,2083.5078 892.5,2096.6563 892.5,2096.6563 C892.5,2109.8047 897.5,2109.8047 897.5,2109.8047 " fill="none" style="stroke:#181818;stroke-width:0.5;"/><text fill="#000000" font-family="sans-serif" font-size="14" lengthAdjust="spacing" textLength="73" x="814.5" y="2101.5029">MsgQueue</text><rect fill="#E2E2F0" height="30.2969" rx="2.5" ry="2.5" style="stroke:#181818;stroke-width:0.5;" width="93" x="950.5" y="2083.5078"/><text fill="#000000" font-family="sans-serif" font-size="14" lengthAdjust="spacing" textLength="79" x="957.5" y="2103.5029">Dispatcher</text><text fill="#000000" font-family="sans-serif" font-size="14" lengthAdjust="spacing" textLength="83" x="1098.5" y="84.1279">Semaphore</text><ellipse cx="1143" cy="55.1328" fill="#E2E2F0" rx="12" ry="12" style="stroke:#181818;stroke-width:0.5;"/><line style="stroke:#181818;stroke-width:0.5;" x1="1131" x2="1155" y1="69.1328" y2="69.1328"/><text fill="#000000" font-family="sans-serif" font-size="14" lengthAdjust="spacing" textLength="83" x="1098.5" y="2096.5029">Semaphore</text><ellipse cx="1143" cy="2115.8047" fill="#E2E2F0" rx="12" ry="12" style="stroke:#181818;stroke-width:0.5;"/><line style="stroke:#181818;stroke-width:0.5;" x1="1131" x2="1155" y1="2129.8047" y2="2129.8047"/><rect fill="#E2E2F0" height="30.2969" rx="2.5" ry="2.5" style="stroke:#181818;stroke-width:0.5;" width="60" x="1197.5" y="2083.5078"/><text fill="#000000" font-family="sans-serif" font-size="14" lengthAdjust="spacing" textLength="46" x="1204.5" y="2103.5029">Ack'er</text><path d="M1292,61.1328 L1374,61.1328 C1379,61.1328 1379,74.2813 1379,74.2813 C1379,74.2813 1379,87.4297 1374,87.4297 L1292,87.4297 C1287,87.4297 1287,74.2813 1287,74.2813 C1287,74.2813 1287,61.1328 1292,61.1328 " fill="#E2E2F0" style="stroke:#181818;stroke-width:0.5;"/><path d="M1374,61.1328 C1369,61.1328 1369,74.2813 1369,74.2813 C1369,87.4297 1374,87.4297 1374,87.4297 " fill="none" style="stroke:#181818;stroke-width:0.5;"/><text fill="#000000" font-family="sans-serif" font-size="14" lengthAdjust="spacing" textLength="72" x="1292" y="79.1279">AckQueue</text><path d="M1292,2083.5078 L1374,2083.5078 C1379,2083.5078 1379,2096.6563 1379,2096.6563 C1379,2096.6563 1379,2109.8047 1374,2109.8047 L1292,2109.8047 C1287,2109.8047 1287,2096.6563 1287,2096.6563 C1287,2096.6563 1287,2083.5078 1292,2083.5078 " fill="#E2E2F0" style="stroke:#181818;stroke-width:0.5;"/><path d="M1374,2083.5078 C1369,2083.5078 1369,2096.6563 1369,2096.6563 C1369,2109.8047 1374,2109.8047 1374,2109.8047 " fill="none" style="stroke:#181818;stroke-width:0.5;"/><text fill="#000000" font-family="sans-serif" font-size="14" lengthAdjust="spacing" textLength="72" x="1292" y="2101.5029">AckQueue</text><rect fill="#E2E2F0" height="46.5938" rx="2.5" ry="2.5" style="stroke:#181818;stroke-width:0.5;" width="78" x="1404" y="39.8359"/><text fill="#000000" font-family="sans-serif" font-size="14" lengthAdjust="spacing" textLength="64" x="1411" y="59.8311">Executor</text><text fill="#000000" font-family="sans-serif" font-size="14" lengthAdjust="spacing" textLength="63" x="1411.5" y="76.1279">Thread 1</text><rect fill="#E2E2F0" height="46.5938" rx="2.5" ry="2.5" style="stroke:#181818;stroke-width:0.5;" width="78" x="1404" y="2083.5078"/><text fill="#000000" font-family="sans-serif" font-size="14" lengthAdjust="spacing" textLength="64" x="1411" y="2103.5029">Executor</text><text fill="#000000" font-family="sans-serif" font-size="14" lengthAdjust="spacing" textLength="63" x="1411.5" y="2119.7998">Thread 1</text><text fill="#000000" font-family="sans-serif" font-size="14" lengthAdjust="spacing" textLength="44" x="1606" y="84.1279">Cache</text><path d="M1613,35.1328 C1613,25.1328 1631,25.1328 1631,25.1328 C1631,25.1328 1649,25.1328 1649,35.1328 L1649,61.1328 C1649,71.1328 1631,71.1328 1631,71.1328 C1631,71.1328 1613,71.1328 1613,61.1328 L1613,35.1328 " fill="#E2E2F0" style="stroke:#181818;stroke-width:1.5;"/><path d="M1613,35.1328 C1613,45.1328 1631,45.1328 1631,45.1328 C1631,45.1328 1649,45.1328 1649,35.1328 " fill="none" style="stroke:#181818;stroke-width:1.5;"/><text fill="#000000" font-family="sans-serif" font-size="14" lengthAdjust="spacing" textLength="44" x="1606" y="2096.5029">Cache</text><path d="M1613,2109.8047 C1613,2099.8047 1631,2099.8047 1631,2099.8047 C1631,2099.8047 1649,2099.8047 1649,2109.8047 L1649,2135.8047 C1649,2145.8047 1631,2145.8047 1631,2145.8047 C1631,2145.8047 1613,2145.8047 1613,2135.8047 L1613,2109.8047 " fill="#E2E2F0" style="stroke:#181818;stroke-width:1.5;"/><path d="M1613,2109.8047 C1613,2119.8047 1631,2119.8047 1631,2119.8047 C1631,2119.8047 1649,2119.8047 1649,2109.8047 " fill="none" style="stroke:#181818;stroke-width:1.5;"/><rect fill="#E2E2F0" height="46.5938" rx="2.5" ry="2.5" style="stroke:#181818;stroke-width:0.5;" width="80" x="1666" y="39.8359"/><text fill="#000000" font-family="sans-serif" font-size="14" lengthAdjust="spacing" textLength="64" x="1674" y="59.8311">Executor</text><text fill="#000000" font-family="sans-serif" font-size="14" lengthAdjust="spacing" textLength="66" x="1673" y="76.1279">app logic</text><rect fill="#E2E2F0" height="46.5938" rx="2.5" ry="2.5" style="stroke:#181818;stroke-width:0.5;" width="80" x="1666" y="2083.5078"/><text fill="#000000" font-family="sans-serif" font-size="14" lengthAdjust="spacing" textLength="64" x="1674" y="2103.5029">Executor</text><text fill="#000000" font-family="sans-serif" font-size="14" lengthAdjust="spacing" textLength="66" x="1673" y="2119.7998">app logic</text><rect fill="#005500" height="518.3203" style="stroke:#181818;stroke-width:1.0;" width="10" x="1438" y="1282.5938"/><path d="M1172,102.4297 L1172,127.4297 L1494,127.4297 L1494,112.4297 L1484,102.4297 L1172,102.4297 " fill="#FEFFDD" style="stroke:#181818;stroke-width:0.5;"/><path d="M1484,102.4297 L1484,112.4297 L1494,112.4297 L1484,102.4297 " fill="#FEFFDD" style="stroke:#181818;stroke-width:0.5;"/><text fill="#000000" font-family="sans-serif" font-size="13" lengthAdjust="spacing" textLength="301" x="1178" y="119.4966">thread-safe ordered IDictionary&lt;TKey,TValue&gt;</text><path d="M1538,137.5625 L1538,162.5625 L1724,162.5625 L1724,147.5625 L1714,137.5625 L1538,137.5625 " fill="#FEFFDD" style="stroke:#181818;stroke-width:0.5;"/><path d="M1714,137.5625 L1714,147.5625 L1724,147.5625 L1714,137.5625 " fill="#FEFFDD" style="stroke:#181818;stroke-width:0.5;"/><text fill="#000000" font-family="sans-serif" font-size="13" lengthAdjust="spacing" textLength="165" x="1544" y="154.6294">cleared regularly by timer</text><path d="M10,174.6953 L150,174.6953 L150,181.8281 L140,191.8281 L10,191.8281 L10,174.6953 " fill="#EEEEEE" style="stroke:#000000;stroke-width:1.5;"/><rect fill="none" height="468.9141" style="stroke:#000000;stroke-width:1.5;" width="1267.5" x="10" y="174.6953"/><text fill="#000000" font-family="sans-serif" font-size="13" font-weight="bold" lengthAdjust="spacing" textLength="95" x="25" y="187.7622">Initialization</text><path d="M20,198.8281 L221,198.8281 L221,205.9609 L211,215.9609 L20,215.9609 L20,198.8281 " fill="#EEEEEE" style="stroke:#000000;stroke-width:1.5;"/><rect fill="none" height="119.6641" style="stroke:#000000;stroke-width:1.5;" width="413.5" x="20" y="198.8281"/><text fill="#000000" font-family="sans-serif" font-size="13" font-weight="bold" lengthAdjust="spacing" textLength="156" x="35" y="211.895">Invoker initialization</text><polygon fill="#181818" points="216,233.0938,226,237.0938,216,241.0938,220,237.0938" style="stroke:#181818;stroke-width:1.0;"/><line style="stroke:#181818;stroke-width:1.0;" x1="70" x2="222" y1="237.0938" y2="237.0938"/><text fill="#000000" font-family="sans-serif" font-size="13" font-weight="bold" lengthAdjust="spacing" textLength="9" x="77" y="232.0278">1</text><text fill="#000000" font-family="sans-serif" font-size="13" lengthAdjust="spacing" textLength="51" x="90" y="232.0278">Initialize</text><polygon fill="#181818" points="380,277.3594,390,281.3594,380,285.3594,384,281.3594" style="stroke:#181818;stroke-width:1.0;"/><line style="stroke:#181818;stroke-width:1.0;" x1="228" x2="386" y1="281.3594" y2="281.3594"/><text fill="#000000" font-family="sans-serif" font-size="13" font-weight="bold" lengthAdjust="spacing" textLength="9" x="235" y="268.7271">2</text><text fill="#000000" font-family="sans-serif" font-size="13" lengthAdjust="spacing" textLength="25" x="248" y="261.1606">SUB</text><text fill="#000000" font-family="sans-serif" font-size="13" lengthAdjust="spacing" textLength="104" x="248" y="276.2935">"response topic"</text><polygon fill="#181818" points="239,306.4922,229,310.4922,239,314.4922,235,310.4922" style="stroke:#181818;stroke-width:1.0;"/><line style="stroke:#181818;stroke-width:1.0;stroke-dasharray:2.0,2.0;" x1="233" x2="391" y1="310.4922" y2="310.4922"/><text fill="#000000" font-family="sans-serif" font-size="13" font-weight="bold" lengthAdjust="spacing" textLength="8" x="245" y="305.4263">3</text><text fill="#000000" font-family="sans-serif" font-size="13" lengthAdjust="spacing" textLength="51" x="257" y="305.4263">SUBACK</text><path d="M350.5,332.4922 L562.5,332.4922 L562.5,339.625 L552.5,349.625 L350.5,349.625 L350.5,332.4922 " fill="#EEEEEE" style="stroke:#000000;stroke-width:1.5;"/><rect fill="none" height="304.1172" style="stroke:#000000;stroke-width:1.5;" width="917" x="350.5" y="332.4922"/><text fill="#000000" font-family="sans-serif" font-size="13" font-weight="bold" lengthAdjust="spacing" textLength="167" x="365.5" y="345.5591">Executor initialization</text><polygon fill="#181818" points="1131,366.7578,1141,370.7578,1131,374.7578,1135,370.7578" style="stroke:#181818;stroke-width:1.0;"/><line style="stroke:#181818;stroke-width:1.0;" x1="697" x2="1137" y1="370.7578" y2="370.7578"/><text fill="#000000" font-family="sans-serif" font-size="13" font-weight="bold" lengthAdjust="spacing" textLength="9" x="704" y="365.6919">4</text><text fill="#000000" font-family="sans-serif" font-size="13" lengthAdjust="spacing" textLength="37" x="717" y="365.6919">init(1)</text><polygon fill="#181818" points="617,395.8906,607,399.8906,617,403.8906,613,399.8906" style="stroke:#181818;stroke-width:1.0;"/><line style="stroke:#181818;stroke-width:1.0;" x1="611" x2="696" y1="399.8906" y2="399.8906"/><text fill="#000000" font-family="sans-serif" font-size="13" font-weight="bold" lengthAdjust="spacing" textLength="9" x="623" y="394.8247">5</text><text fill="#000000" font-family="sans-serif" font-size="13" lengthAdjust="spacing" textLength="41" x="636" y="394.8247">create</text><rect fill="#E2E2F0" height="46.5938" rx="2.5" ry="2.5" style="stroke:#181818;stroke-width:0.5;" width="100" x="506" y="378.7578"/><text fill="#000000" font-family="sans-serif" font-size="14" lengthAdjust="spacing" textLength="64" x="524" y="398.7529">Executor</text><text fill="#000000" font-family="sans-serif" font-size="14" lengthAdjust="spacing" textLength="86" x="513" y="415.0498">MQTT client</text><polygon fill="#181818" points="938.5,453.4844,948.5,457.4844,938.5,461.4844,942.5,457.4844" style="stroke:#181818;stroke-width:1.0;"/><line style="stroke:#181818;stroke-width:1.0;" x1="697" x2="944.5" y1="457.4844" y2="457.4844"/><text fill="#000000" font-family="sans-serif" font-size="13" font-weight="bold" lengthAdjust="spacing" textLength="9" x="704" y="452.4185">6</text><text fill="#000000" font-family="sans-serif" font-size="13" lengthAdjust="spacing" textLength="41" x="717" y="452.4185">create</text><rect fill="#E2E2F0" height="30.2969" rx="2.5" ry="2.5" style="stroke:#181818;stroke-width:0.5;" width="93" x="950.5" y="436.3516"/><text fill="#000000" font-family="sans-serif" font-size="14" lengthAdjust="spacing" textLength="79" x="957.5" y="456.3467">Dispatcher</text><polygon fill="#181818" points="1185.5,494.7813,1195.5,498.7813,1185.5,502.7813,1189.5,498.7813" style="stroke:#181818;stroke-width:1.0;"/><line style="stroke:#181818;stroke-width:1.0;" x1="697" x2="1191.5" y1="498.7813" y2="498.7813"/><text fill="#000000" font-family="sans-serif" font-size="13" font-weight="bold" lengthAdjust="spacing" textLength="9" x="704" y="493.7153">7</text><text fill="#000000" font-family="sans-serif" font-size="13" lengthAdjust="spacing" textLength="41" x="717" y="493.7153">create</text><rect fill="#E2E2F0" height="30.2969" rx="2.5" ry="2.5" style="stroke:#181818;stroke-width:0.5;" width="60" x="1197.5" y="477.6484"/><text fill="#000000" font-family="sans-serif" font-size="14" lengthAdjust="spacing" textLength="46" x="1204.5" y="497.6436">Ack'er</text><polygon fill="#181818" points="567,551.2109,557,555.2109,567,559.2109,563,555.2109" style="stroke:#181818;stroke-width:1.0;"/><line style="stroke:#181818;stroke-width:1.0;" x1="561" x2="696" y1="555.2109" y2="555.2109"/><text fill="#000000" font-family="sans-serif" font-size="13" font-weight="bold" lengthAdjust="spacing" textLength="9" x="573" y="542.5786">8</text><text fill="#000000" font-family="sans-serif" font-size="13" lengthAdjust="spacing" textLength="25" x="586" y="535.0122">SUB</text><text fill="#000000" font-family="sans-serif" font-size="13" lengthAdjust="spacing" textLength="94" x="586" y="550.145">"request topic"</text><polygon fill="#181818" points="403,595.4766,393,599.4766,403,603.4766,399,599.4766" style="stroke:#181818;stroke-width:1.0;"/><line style="stroke:#181818;stroke-width:1.0;" x1="397" x2="555" y1="599.4766" y2="599.4766"/><text fill="#000000" font-family="sans-serif" font-size="13" font-weight="bold" lengthAdjust="spacing" textLength="9" x="409" y="586.8442">9</text><text fill="#000000" font-family="sans-serif" font-size="13" lengthAdjust="spacing" textLength="25" x="422" y="579.2778">SUB</text><text fill="#000000" font-family="sans-serif" font-size="13" lengthAdjust="spacing" textLength="94" x="422" y="594.4106">"request topic"</text><polygon fill="#181818" points="544,624.6094,554,628.6094,544,632.6094,548,628.6094" style="stroke:#181818;stroke-width:1.0;"/><line style="stroke:#181818;stroke-width:1.0;stroke-dasharray:2.0,2.0;" x1="392" x2="550" y1="628.6094" y2="628.6094"/><text fill="#000000" font-family="sans-serif" font-size="13" font-weight="bold" lengthAdjust="spacing" textLength="19" x="399" y="623.5435">10</text><text fill="#000000" font-family="sans-serif" font-size="13" lengthAdjust="spacing" textLength="51" x="422" y="623.5435">SUBACK</text><path d="M20,657.6094 L245,657.6094 L245,664.7422 L235,674.7422 L20,674.7422 L20,657.6094 " fill="#EEEEEE" style="stroke:#000000;stroke-width:1.5;"/><rect fill="none" height="1409.8984" style="stroke:#000000;stroke-width:1.5;" width="1746" x="20" y="657.6094"/><text fill="#000000" font-family="sans-serif" font-size="13" font-weight="bold" lengthAdjust="spacing" textLength="180" x="35" y="670.6763">Handle Basic Invocation</text><polygon fill="#181818" points="216,707.0078,226,711.0078,216,715.0078,220,711.0078" style="stroke:#181818;stroke-width:1.0;"/><line style="stroke:#181818;stroke-width:1.0;" x1="70" x2="222" y1="711.0078" y2="711.0078"/><text fill="#000000" font-family="sans-serif" font-size="13" font-weight="bold" lengthAdjust="spacing" textLength="18" x="77" y="698.3755">11</text><text fill="#000000" font-family="sans-serif" font-size="13" lengthAdjust="spacing" textLength="108" x="99" y="690.8091">Invoke method 1</text><text fill="#000000" font-family="sans-serif" font-size="13" lengthAdjust="spacing" textLength="79" x="99" y="705.9419">RPC request</text><polygon fill="#181818" points="380,766.4063,390,770.4063,380,774.4063,384,770.4063" style="stroke:#181818;stroke-width:1.0;"/><line style="stroke:#181818;stroke-width:1.0;" x1="228" x2="386" y1="770.4063" y2="770.4063"/><text fill="#000000" font-family="sans-serif" font-size="13" font-weight="bold" lengthAdjust="spacing" textLength="18" x="235" y="750.2075">12</text><text fill="#000000" font-family="sans-serif" font-size="13" lengthAdjust="spacing" textLength="97" x="257" y="735.0747">PUB MQTT msg</text><text fill="#000000" font-family="sans-serif" font-size="13" lengthAdjust="spacing" textLength="118" x="257" y="750.2075">(RPC invocation 1)</text><text fill="#000000" font-family="sans-serif" font-size="13" lengthAdjust="spacing" textLength="95" x="257" y="765.3403">PktId:1;CorId:1</text><polygon fill="#181818" points="239,810.6719,229,814.6719,239,818.6719,235,814.6719" style="stroke:#181818;stroke-width:1.0;"/><line style="stroke:#181818;stroke-width:1.0;stroke-dasharray:2.0,2.0;" x1="233" x2="391" y1="814.6719" y2="814.6719"/><text fill="#000000" font-family="sans-serif" font-size="13" font-weight="bold" lengthAdjust="spacing" textLength="17" x="245" y="802.0396">13</text><text fill="#000000" font-family="sans-serif" font-size="13" lengthAdjust="spacing" textLength="51" x="266" y="794.4731">PUBACK</text><text fill="#000000" font-family="sans-serif" font-size="13" lengthAdjust="spacing" textLength="95" x="266" y="809.606">PktId:1;CorId:1</text><path d="M350.5,829.6719 L530.5,829.6719 L530.5,836.8047 L520.5,846.8047 L350.5,846.8047 L350.5,829.6719 " fill="#EEEEEE" style="stroke:#000000;stroke-width:1.5;"/><rect fill="none" height="1067.7734" style="stroke:#000000;stroke-width:1.5;" width="1405.5" x="350.5" y="829.6719"/><text fill="#000000" font-family="sans-serif" font-size="13" font-weight="bold" lengthAdjust="spacing" textLength="135" x="365.5" y="842.7388">Executor handling</text><polygon fill="#181818" points="544,894.2031,554,898.2031,544,902.2031,548,898.2031" style="stroke:#181818;stroke-width:1.0;"/><line style="stroke:#181818;stroke-width:1.0;" x1="392" x2="550" y1="898.2031" y2="898.2031"/><text fill="#000000" font-family="sans-serif" font-size="13" font-weight="bold" lengthAdjust="spacing" textLength="18" x="399" y="878.0044">14</text><text fill="#000000" font-family="sans-serif" font-size="13" lengthAdjust="spacing" textLength="97" x="421" y="862.8716">PUB MQTT msg</text><text fill="#000000" font-family="sans-serif" font-size="13" lengthAdjust="spacing" textLength="118" x="421" y="878.0044">(RPC invocation 1)</text><text fill="#000000" font-family="sans-serif" font-size="13" lengthAdjust="spacing" textLength="95" x="421" y="893.1372">PktId:1;CorId:1</text><polygon fill="#181818" points="685,938.4688,695,942.4688,685,946.4688,689,942.4688" style="stroke:#181818;stroke-width:1.0;"/><line style="stroke:#181818;stroke-width:1.0;" x1="556" x2="691" y1="942.4688" y2="942.4688"/><text fill="#000000" font-family="sans-serif" font-size="13" font-weight="bold" lengthAdjust="spacing" textLength="18" x="563" y="929.8364">15</text><text fill="#000000" font-family="sans-serif" font-size="13" lengthAdjust="spacing" textLength="85" x="585" y="922.27">Send request</text><text fill="#000000" font-family="sans-serif" font-size="13" lengthAdjust="spacing" textLength="95" x="585" y="937.4028">PktId:1;CorId:1</text><polygon fill="#181818" points="844,982.7344,854,986.7344,844,990.7344,848,986.7344" style="stroke:#181818;stroke-width:1.0;"/><line style="stroke:#181818;stroke-width:1.0;" x1="697" x2="850" y1="986.7344" y2="986.7344"/><text fill="#000000" font-family="sans-serif" font-size="13" font-weight="bold" lengthAdjust="spacing" textLength="18" x="704" y="974.1021">16</text><text fill="#000000" font-family="sans-serif" font-size="13" lengthAdjust="spacing" textLength="109" x="726" y="966.5356">Enqueue request</text><text fill="#000000" font-family="sans-serif" font-size="13" lengthAdjust="spacing" textLength="95" x="726" y="981.6685">PktId:1;CorId:1</text><polygon fill="#181818" points="867,1027,857,1031,867,1035,863,1031" style="stroke:#181818;stroke-width:1.0;"/><line style="stroke:#181818;stroke-width:1.0;" x1="861" x2="996" y1="1031" y2="1031"/><text fill="#000000" font-family="sans-serif" font-size="13" font-weight="bold" lengthAdjust="spacing" textLength="18" x="873" y="1018.3677">17</text><text fill="#000000" font-family="sans-serif" font-size="13" lengthAdjust="spacing" textLength="86" x="895" y="1010.8013">Read request</text><text fill="#000000" font-family="sans-serif" font-size="13" lengthAdjust="spacing" textLength="95" x="895" y="1025.9341">PktId:1;CorId:1</text><polygon fill="#181818" points="1321,1071.2656,1331,1075.2656,1321,1079.2656,1325,1075.2656" style="stroke:#181818;stroke-width:1.0;"/><line style="stroke:#181818;stroke-width:1.0;" x1="997" x2="1327" y1="1075.2656" y2="1075.2656"/><text fill="#000000" font-family="sans-serif" font-size="13" font-weight="bold" lengthAdjust="spacing" textLength="18" x="1004" y="1062.6333">18</text><text fill="#000000" font-family="sans-serif" font-size="13" lengthAdjust="spacing" textLength="286" x="1026" y="1055.0669">Try to add a placeholder for request PUBACK</text><text fill="#000000" font-family="sans-serif" font-size="13" lengthAdjust="spacing" textLength="44" x="1026" y="1070.1997">PktId:1</text><polygon fill="#181818" points="1008,1115.5313,998,1119.5313,1008,1123.5313,1004,1119.5313" style="stroke:#181818;stroke-width:1.0;"/><line style="stroke:#181818;stroke-width:1.0;stroke-dasharray:2.0,2.0;" x1="1002" x2="1332" y1="1119.5313" y2="1119.5313"/><text fill="#000000" font-family="sans-serif" font-size="13" font-weight="bold" lengthAdjust="spacing" textLength="18" x="1014" y="1106.8989">19</text><text fill="#000000" font-family="sans-serif" font-size="13" lengthAdjust="spacing" textLength="248" x="1036" y="1099.3325">Placeholder for request PUBACK added</text><text fill="#000000" font-family="sans-serif" font-size="13" lengthAdjust="spacing" textLength="44" x="1036" y="1114.4653">PktId:1</text><polygon fill="#181818" points="1131,1159.7969,1141,1163.7969,1131,1167.7969,1135,1163.7969" style="stroke:#181818;stroke-width:1.0;"/><line style="stroke:#181818;stroke-width:1.0;" x1="997" x2="1137" y1="1163.7969" y2="1163.7969"/><text fill="#000000" font-family="sans-serif" font-size="13" font-weight="bold" lengthAdjust="spacing" textLength="19" x="1004" y="1151.1646">20</text><text fill="#000000" font-family="sans-serif" font-size="13" lengthAdjust="spacing" textLength="95" x="1027" y="1143.5981">request thread</text><text fill="#000000" font-family="sans-serif" font-size="13" lengthAdjust="spacing" textLength="73" x="1027" y="1158.731">semaphore</text><polygon fill="#181818" points="1008,1219.1953,998,1223.1953,1008,1227.1953,1004,1223.1953" style="stroke:#181818;stroke-width:1.0;"/><line style="stroke:#181818;stroke-width:1.0;stroke-dasharray:2.0,2.0;" x1="1002" x2="1142" y1="1223.1953" y2="1223.1953"/><text fill="#000000" font-family="sans-serif" font-size="13" font-weight="bold" lengthAdjust="spacing" textLength="18" x="1014" y="1202.9966">21</text><text fill="#000000" font-family="sans-serif" font-size="13" lengthAdjust="spacing" textLength="73" x="1036" y="1187.8638">semaphore</text><text fill="#000000" font-family="sans-serif" font-size="13" lengthAdjust="spacing" textLength="55" x="1036" y="1202.9966">acquired</text><text fill="#000000" font-family="sans-serif" font-size="13" lengthAdjust="spacing" textLength="86" x="1036" y="1218.1294">(0 remaining)</text><polygon fill="#181818" points="1426,1278.5938,1436,1282.5938,1426,1286.5938,1430,1282.5938" style="stroke:#181818;stroke-width:1.0;"/><line style="stroke:#181818;stroke-width:1.0;" x1="997" x2="1432" y1="1282.5938" y2="1282.5938"/><text fill="#000000" font-family="sans-serif" font-size="13" font-weight="bold" lengthAdjust="spacing" textLength="18" x="1004" y="1262.395">22</text><text fill="#000000" font-family="sans-serif" font-size="13" lengthAdjust="spacing" textLength="84" x="1026" y="1247.2622">Start request</text><text fill="#000000" font-family="sans-serif" font-size="13" lengthAdjust="spacing" textLength="63" x="1026" y="1262.395">execution</text><text fill="#000000" font-family="sans-serif" font-size="13" lengthAdjust="spacing" textLength="95" x="1026" y="1277.5278">PktId:1;CorId:1</text><polygon fill="#181818" points="1619,1353.125,1629,1357.125,1619,1361.125,1623,1357.125" style="stroke:#181818;stroke-width:1.0;"/><line style="stroke:#181818;stroke-width:1.0;" x1="1448" x2="1625" y1="1357.125" y2="1357.125"/><text fill="#000000" font-family="sans-serif" font-size="13" font-weight="bold" lengthAdjust="spacing" textLength="17" x="1455" y="1329.3599">23</text><text fill="#000000" font-family="sans-serif" font-size="13" lengthAdjust="spacing" textLength="78" x="1476" y="1306.6606">Try to add a</text><text fill="#000000" font-family="sans-serif" font-size="13" lengthAdjust="spacing" textLength="96" x="1476" y="1321.7935">placeholder for</text><text fill="#000000" font-family="sans-serif" font-size="13" lengthAdjust="spacing" textLength="134" x="1476" y="1336.9263">the cached response</text><text fill="#000000" font-family="sans-serif" font-size="13" lengthAdjust="spacing" textLength="46" x="1476" y="1352.0591">CorId:1</text><polygon fill="#181818" points="1459,1427.6563,1449,1431.6563,1459,1435.6563,1455,1431.6563" style="stroke:#181818;stroke-width:1.0;"/><line style="stroke:#181818;stroke-width:1.0;stroke-dasharray:2.0,2.0;" x1="1453" x2="1630" y1="1431.6563" y2="1431.6563"/><text fill="#000000" font-family="sans-serif" font-size="13" font-weight="bold" lengthAdjust="spacing" textLength="18" x="1465" y="1403.8911">24</text><text fill="#000000" font-family="sans-serif" font-size="13" lengthAdjust="spacing" textLength="96" x="1487" y="1381.1919">Placeholder for</text><text fill="#000000" font-family="sans-serif" font-size="13" lengthAdjust="spacing" textLength="109" x="1487" y="1396.3247">cached response</text><text fill="#000000" font-family="sans-serif" font-size="13" lengthAdjust="spacing" textLength="49" x="1487" y="1411.4575">created</text><text fill="#000000" font-family="sans-serif" font-size="13" lengthAdjust="spacing" textLength="46" x="1487" y="1426.5903">CorId:1</text><polygon fill="#181818" points="1694,1456.7891,1704,1460.7891,1694,1464.7891,1698,1460.7891" style="stroke:#181818;stroke-width:1.0;"/><line style="stroke:#181818;stroke-width:1.0;" x1="1448" x2="1700" y1="1460.7891" y2="1460.7891"/><text fill="#000000" font-family="sans-serif" font-size="13" font-weight="bold" lengthAdjust="spacing" textLength="18" x="1455" y="1455.7231">25</text><text fill="#000000" font-family="sans-serif" font-size="13" lengthAdjust="spacing" textLength="105" x="1477" y="1455.7231">Execute request</text><polygon fill="#181818" points="1459,1485.9219,1449,1489.9219,1459,1493.9219,1455,1489.9219" style="stroke:#181818;stroke-width:1.0;"/><line style="stroke:#181818;stroke-width:1.0;stroke-dasharray:2.0,2.0;" x1="1453" x2="1705" y1="1489.9219" y2="1489.9219"/><text fill="#000000" font-family="sans-serif" font-size="13" font-weight="bold" lengthAdjust="spacing" textLength="18" x="1465" y="1484.856">26</text><text fill="#000000" font-family="sans-serif" font-size="13" lengthAdjust="spacing" textLength="63" x="1487" y="1484.856">Response</text><polygon fill="#181818" points="1619,1560.4531,1629,1564.4531,1619,1568.4531,1623,1564.4531" style="stroke:#181818;stroke-width:1.0;"/><line style="stroke:#181818;stroke-width:1.0;" x1="1448" x2="1625" y1="1564.4531" y2="1564.4531"/><text fill="#000000" font-family="sans-serif" font-size="13" font-weight="bold" lengthAdjust="spacing" textLength="18" x="1455" y="1536.688">27</text><text fill="#000000" font-family="sans-serif" font-size="13" lengthAdjust="spacing" textLength="124" x="1477" y="1513.9888">Update placeholder</text><text fill="#000000" font-family="sans-serif" font-size="13" lengthAdjust="spacing" textLength="69" x="1477" y="1529.1216">with cache</text><text fill="#000000" font-family="sans-serif" font-size="13" lengthAdjust="spacing" textLength="113" x="1477" y="1544.2544">request:response</text><text fill="#000000" font-family="sans-serif" font-size="13" lengthAdjust="spacing" textLength="46" x="1477" y="1559.3872">CorId:1</text><polygon fill="#181818" points="567,1604.7188,557,1608.7188,567,1612.7188,563,1608.7188" style="stroke:#181818;stroke-width:1.0;"/><line style="stroke:#181818;stroke-width:1.0;" x1="561" x2="1437" y1="1608.7188" y2="1608.7188"/><text fill="#000000" font-family="sans-serif" font-size="13" font-weight="bold" lengthAdjust="spacing" textLength="18" x="573" y="1596.0864">28</text><text fill="#000000" font-family="sans-serif" font-size="13" lengthAdjust="spacing" textLength="95" x="595" y="1588.52">Send response</text><text fill="#000000" font-family="sans-serif" font-size="13" lengthAdjust="spacing" textLength="46" x="595" y="1603.6528">CorId:1</text><polygon fill="#181818" points="403,1664.1172,393,1668.1172,403,1672.1172,399,1668.1172" style="stroke:#181818;stroke-width:1.0;"/><line style="stroke:#181818;stroke-width:1.0;" x1="397" x2="555" y1="1668.1172" y2="1668.1172"/><text fill="#000000" font-family="sans-serif" font-size="13" font-weight="bold" lengthAdjust="spacing" textLength="18" x="409" y="1647.9185">29</text><text fill="#000000" font-family="sans-serif" font-size="13" lengthAdjust="spacing" textLength="88" x="431" y="1632.7856">PUB response</text><text fill="#000000" font-family="sans-serif" font-size="13" lengthAdjust="spacing" textLength="104" x="431" y="1647.9185">(response topic)</text><text fill="#000000" font-family="sans-serif" font-size="13" lengthAdjust="spacing" textLength="46" x="431" y="1663.0513">CorId:1</text><polygon fill="#181818" points="544,1693.25,554,1697.25,544,1701.25,548,1697.25" style="stroke:#181818;stroke-width:1.0;"/><line style="stroke:#181818;stroke-width:1.0;stroke-dasharray:2.0,2.0;" x1="392" x2="550" y1="1697.25" y2="1697.25"/><text fill="#000000" font-family="sans-serif" font-size="13" font-weight="bold" lengthAdjust="spacing" textLength="18" x="399" y="1692.1841">30</text><text fill="#000000" font-family="sans-serif" font-size="13" lengthAdjust="spacing" textLength="51" x="421" y="1692.1841">PUBACK</text><polygon fill="#181818" points="1344,1752.6484,1334,1756.6484,1344,1760.6484,1340,1756.6484" style="stroke:#181818;stroke-width:1.0;"/><line style="stroke:#181818;stroke-width:1.0;" x1="1338" x2="1437" y1="1756.6484" y2="1756.6484"/><text fill="#000000" font-family="sans-serif" font-size="13" font-weight="bold" lengthAdjust="spacing" textLength="17" x="1350" y="1736.4497">31</text><text fill="#000000" font-family="sans-serif" font-size="13" lengthAdjust="spacing" textLength="56" x="1371" y="1721.3169">Enqueue</text><text fill="#000000" font-family="sans-serif" font-size="13" lengthAdjust="spacing" textLength="51" x="1371" y="1736.4497">PUBACK</text><text fill="#000000" font-family="sans-serif" font-size="13" lengthAdjust="spacing" textLength="44" x="1371" y="1751.5825">PktId:1</text><polygon fill="#181818" points="1154,1796.9141,1144,1800.9141,1154,1804.9141,1150,1800.9141" style="stroke:#181818;stroke-width:1.0;"/><line style="stroke:#181818;stroke-width:1.0;" x1="1148" x2="1442" y1="1800.9141" y2="1800.9141"/><text fill="#000000" font-family="sans-serif" font-size="13" font-weight="bold" lengthAdjust="spacing" textLength="17" x="1160" y="1788.2817">32</text><text fill="#000000" font-family="sans-serif" font-size="13" lengthAdjust="spacing" textLength="128" x="1181" y="1780.7153">Release semaphore</text><text fill="#000000" font-family="sans-serif" font-size="13" lengthAdjust="spacing" textLength="86" x="1181" y="1795.8481">(1 remaining)</text><polygon fill="#181818" points="1321,1826.0469,1331,1830.0469,1321,1834.0469,1325,1830.0469" style="stroke:#181818;stroke-width:1.0;"/><line style="stroke:#181818;stroke-width:1.0;" x1="1227.5" x2="1327" y1="1830.0469" y2="1830.0469"/><text fill="#000000" font-family="sans-serif" font-size="13" font-weight="bold" lengthAdjust="spacing" textLength="16" x="1234.5" y="1824.981">33</text><text fill="#000000" font-family="sans-serif" font-size="13" lengthAdjust="spacing" textLength="59" x="1254.5" y="1824.981">Read ack</text><polygon fill="#181818" points="403,1885.4453,393,1889.4453,403,1893.4453,399,1889.4453" style="stroke:#181818;stroke-width:1.0;"/><line style="stroke:#181818;stroke-width:1.0;stroke-dasharray:2.0,2.0;" x1="397" x2="1226.5" y1="1889.4453" y2="1889.4453"/><text fill="#000000" font-family="sans-serif" font-size="13" font-weight="bold" lengthAdjust="spacing" textLength="17" x="409" y="1869.2466">34</text><text fill="#000000" font-family="sans-serif" font-size="13" lengthAdjust="spacing" textLength="51" x="430" y="1854.1138">PUBACK</text><text fill="#000000" font-family="sans-serif" font-size="13" lengthAdjust="spacing" textLength="81" x="430" y="1869.2466">(for request)</text><text fill="#000000" font-family="sans-serif" font-size="13" lengthAdjust="spacing" textLength="44" x="430" y="1884.3794">PktId:1</text><polygon fill="#181818" points="239,1951.8438,229,1955.8438,239,1959.8438,235,1955.8438" style="stroke:#181818;stroke-width:1.0;"/><line style="stroke:#181818;stroke-width:1.0;" x1="233" x2="391" y1="1955.8438" y2="1955.8438"/><text fill="#000000" font-family="sans-serif" font-size="13" font-weight="bold" lengthAdjust="spacing" textLength="17" x="245" y="1935.645">35</text><text fill="#000000" font-family="sans-serif" font-size="13" lengthAdjust="spacing" textLength="97" x="266" y="1920.5122">PUB MQTT msg</text><text fill="#000000" font-family="sans-serif" font-size="13" lengthAdjust="spacing" textLength="111" x="266" y="1935.645">(RPC response 1)</text><text fill="#000000" font-family="sans-serif" font-size="13" lengthAdjust="spacing" textLength="95" x="266" y="1950.7778">PktId:1;CorId:1</text><polygon fill="#181818" points="380,2011.2422,390,2015.2422,380,2019.2422,384,2015.2422" style="stroke:#181818;stroke-width:1.0;"/><line style="stroke:#181818;stroke-width:1.0;stroke-dasharray:2.0,2.0;" x1="228" x2="386" y1="2015.2422" y2="2015.2422"/><text fill="#000000" font-family="sans-serif" font-size="13" font-weight="bold" lengthAdjust="spacing" textLength="17" x="235" y="1995.0435">36</text><text fill="#000000" font-family="sans-serif" font-size="13" lengthAdjust="spacing" textLength="51" x="256" y="1979.9106">PUBACK</text><text fill="#000000" font-family="sans-serif" font-size="13" lengthAdjust="spacing" textLength="111" x="256" y="1995.0435">(RPC response 1)</text><text fill="#000000" font-family="sans-serif" font-size="13" lengthAdjust="spacing" textLength="95" x="256" y="2010.1763">PktId:1;CorId:1</text><polygon fill="#181818" points="81,2055.5078,71,2059.5078,81,2063.5078,77,2059.5078" style="stroke:#181818;stroke-width:1.0;"/><line style="stroke:#181818;stroke-width:1.0;stroke-dasharray:2.0,2.0;" x1="75" x2="227" y1="2059.5078" y2="2059.5078"/><text fill="#000000" font-family="sans-serif" font-size="13" font-weight="bold" lengthAdjust="spacing" textLength="17" x="87" y="2046.8755">37</text><text fill="#000000" font-family="sans-serif" font-size="13" lengthAdjust="spacing" textLength="93" x="108" y="2039.3091">RPC Response</text><text fill="#000000" font-family="sans-serif" font-size="13" lengthAdjust="spacing" textLength="46" x="108" y="2054.4419">CorId:1</text><!--SRC=[bLLDJ-Cm4BtxLuowXwLYAxK7BjqL4XIaHGYfbBAdN1pRD1QfdIOEI_VNxumT9sbQzkD4Ej_pvZsJsdUuCs_sLPMiuANJGXVSE1WrniJmee3SRhGO0Qz0y_naN70oPIIazfqTnboNRKZA6FhXzbs9sjb1psXDpCFZUWqYryeudwQsudHeyB9ThMe5euTgyqXVthexpBZHLS6To9f19CxgjDl3w4bjUP7PCcHLQdkOToLUFpSvN11CJI-qTxtGmunr2koRAkaNpC5bfU9oKl4ND9TIbKh2tOqMJbl3o_stzRtQVrd_u7cjBZ_2OUrhmCmtSJF697SyvHNsNt3SnTj5hxMO8soAKwzIRUgSb_aUqZqulLKVedruOhnmF2D7lwctAHPcR5FQka2oQ8SaqByuxT4QFGb07phn4oQNe16CDaqnJROKRK_Frv2OKQcgmXfSoTa2Hs0fJ9ea3BXQtDCqiNkSUTX9KKqy7IQHvsmsPWAHGrI8ETwB7-WDrkYKmIMF7E7Itka_ku1UhNP-P4JbulZa6ovu413sQql43NjRVkT6vWgkUQM5nrQSm9CGXwrocKL-O9lLSW5DfmxY9KxWjRIjDeavenZTreFPE37BLtSdvxEl2rlItnxwIp_RSSJm51bDgys6KkDU_z-tWKqHA4I_2Dg9I8hROToj2LByE5J6q1Mfw2znGRNh4iLYWKi978gS2vNP7CKBBxXgh12WwGenofqqJ5h-EGahepYxLDbHjoLAK7s2ecYU9aO1iK5hnGWkThL6jIF8KypVSgI_sOn3LJU3ytFuD9rUN4od1An3_VTWKFw4T95ZI30NAuWX8eaPOf8OboaGz1eHn8sM4nCB2JytbZj69Z77QK5cibSWJ8BKdpUSQo_EI0-n-AgfqPlykP0avlx4YVcfNHR6nHzDeVc9kKEPHgQ1aKSnFQqJusC47kFmKHltSlho3vI86th-HLBZHOOa2s612NvXVEYnGqi7R3lhSo2yN6rbhm7wHzNOky6zpCzwNEtq6Pwb5BetOQZhTjDJgjQ3Dl3lITfVd89NBQmjxaR-1W00]--></g></svg>