<?xml version="1.0" encoding="us-ascii" standalone="no"?><svg xmlns="http://www.w3.org/2000/svg" xmlns:xlink="http://www.w3.org/1999/xlink" contentStyleType="text/css" height="1916px" preserveAspectRatio="none" style="width:2642px;height:1916px;background:#FFFFFF;" version="1.1" viewBox="0 0 2642 1916" width="2642px" zoomAndPan="magnify"><defs/><g><rect fill="#DDDDDD" height="1897.1563" style="stroke:#181818;stroke-width:0.5;" width="245" x="26" y="6"/><text fill="#000000" font-family="sans-serif" font-size="13" font-weight="bold" lengthAdjust="spacing" textLength="57" x="120" y="18.0669">Invoker</text><rect fill="#DDDDDD" height="1897.1563" style="stroke:#181818;stroke-width:0.5;" width="1861.5" x="775" y="6"/><text fill="#000000" font-family="sans-serif" font-size="13" font-weight="bold" lengthAdjust="spacing" textLength="68" x="1671.75" y="18.0669">Executor</text><rect fill="#005500" height="210.0625" style="stroke:#181818;stroke-width:1.0;" width="10" x="2205.5" y="1537.5313"/><rect fill="none" height="630.8438" style="stroke:#000000;stroke-width:1.5;" width="1942.5" x="10" y="139.5625"/><rect fill="none" height="208.1953" style="stroke:#000000;stroke-width:1.5;" width="552.5" x="20" y="163.6953"/><rect fill="none" height="377.5156" style="stroke:#000000;stroke-width:1.5;" width="1453" x="489.5" y="385.8906"/><rect fill="none" height="977.0547" style="stroke:#000000;stroke-width:1.5;" width="2443.5" x="10" y="843.8047"/><rect fill="none" height="842.2578" style="stroke:#000000;stroke-width:1.5;" width="2423.5" x="20" y="971.6016"/><line style="stroke:#181818;stroke-width:0.5;stroke-dasharray:5.0,5.0;" x1="70" x2="70" y1="87.4297" y2="1403.3906"/><line style="stroke:#A80036;stroke-width:1.0;stroke-dasharray:1.0,4.0;" x1="70" x2="70" y1="1403.3906" y2="1457"/><line style="stroke:#181818;stroke-width:0.5;stroke-dasharray:5.0,5.0;" x1="70" x2="70" y1="1457" y2="1837.8594"/><line style="stroke:#181818;stroke-width:0.5;stroke-dasharray:5.0,5.0;" x1="233" x2="233" y1="87.4297" y2="1403.3906"/><line style="stroke:#A80036;stroke-width:1.0;stroke-dasharray:1.0,4.0;" x1="233" x2="233" y1="1403.3906" y2="1457"/><line style="stroke:#181818;stroke-width:0.5;stroke-dasharray:5.0,5.0;" x1="233" x2="233" y1="1457" y2="1837.8594"/><line style="stroke:#181818;stroke-width:0.5;stroke-dasharray:5.0,5.0;" x1="530.5" x2="530.5" y1="87.4297" y2="1403.3906"/><line style="stroke:#A80036;stroke-width:1.0;stroke-dasharray:1.0,4.0;" x1="530.5" x2="530.5" y1="1403.3906" y2="1457"/><line style="stroke:#181818;stroke-width:0.5;stroke-dasharray:5.0,5.0;" x1="530.5" x2="530.5" y1="1457" y2="1837.8594"/><line style="stroke:#181818;stroke-width:0.5;stroke-dasharray:5.0,5.0;" x1="829" x2="829" y1="470.9531" y2="1403.3906"/><line style="stroke:#A80036;stroke-width:1.0;stroke-dasharray:1.0,4.0;" x1="829" x2="829" y1="1403.3906" y2="1457"/><line style="stroke:#181818;stroke-width:0.5;stroke-dasharray:5.0,5.0;" x1="829" x2="829" y1="1457" y2="1837.8594"/><line style="stroke:#181818;stroke-width:0.5;stroke-dasharray:5.0,5.0;" x1="1127" x2="1127" y1="87.4297" y2="1403.3906"/><line style="stroke:#A80036;stroke-width:1.0;stroke-dasharray:1.0,4.0;" x1="1127" x2="1127" y1="1403.3906" y2="1457"/><line style="stroke:#181818;stroke-width:0.5;stroke-dasharray:5.0,5.0;" x1="1127" x2="1127" y1="1457" y2="1837.8594"/><line style="stroke:#181818;stroke-width:0.5;stroke-dasharray:5.0,5.0;" x1="1400.5" x2="1400.5" y1="87.4297" y2="1403.3906"/><line style="stroke:#A80036;stroke-width:1.0;stroke-dasharray:1.0,4.0;" x1="1400.5" x2="1400.5" y1="1403.3906" y2="1457"/><line style="stroke:#181818;stroke-width:0.5;stroke-dasharray:5.0,5.0;" x1="1400.5" x2="1400.5" y1="1457" y2="1837.8594"/><line style="stroke:#181818;stroke-width:0.5;stroke-dasharray:5.0,5.0;" x1="1599.5" x2="1599.5" y1="520.3984" y2="1403.3906"/><line style="stroke:#A80036;stroke-width:1.0;stroke-dasharray:1.0,4.0;" x1="1599.5" x2="1599.5" y1="1403.3906" y2="1457"/><line style="stroke:#181818;stroke-width:0.5;stroke-dasharray:5.0,5.0;" x1="1599.5" x2="1599.5" y1="1457" y2="1837.8594"/><line style="stroke:#181818;stroke-width:0.5;stroke-dasharray:5.0,5.0;" x1="1817.5" x2="1817.5" y1="87.4297" y2="1403.3906"/><line style="stroke:#A80036;stroke-width:1.0;stroke-dasharray:1.0,4.0;" x1="1817.5" x2="1817.5" y1="1403.3906" y2="1457"/><line style="stroke:#181818;stroke-width:0.5;stroke-dasharray:5.0,5.0;" x1="1817.5" x2="1817.5" y1="1457" y2="1837.8594"/><line style="stroke:#181818;stroke-width:0.5;stroke-dasharray:5.0,5.0;" x1="1902.5" x2="1902.5" y1="561.6953" y2="1403.3906"/><line style="stroke:#A80036;stroke-width:1.0;stroke-dasharray:1.0,4.0;" x1="1902.5" x2="1902.5" y1="1403.3906" y2="1457"/><line style="stroke:#181818;stroke-width:0.5;stroke-dasharray:5.0,5.0;" x1="1902.5" x2="1902.5" y1="1457" y2="1837.8594"/><line style="stroke:#181818;stroke-width:0.5;stroke-dasharray:5.0,5.0;" x1="2006.5" x2="2006.5" y1="87.4297" y2="1403.3906"/><line style="stroke:#A80036;stroke-width:1.0;stroke-dasharray:1.0,4.0;" x1="2006.5" x2="2006.5" y1="1403.3906" y2="1457"/><line style="stroke:#181818;stroke-width:0.5;stroke-dasharray:5.0,5.0;" x1="2006.5" x2="2006.5" y1="1457" y2="1837.8594"/><line style="stroke:#181818;stroke-width:0.5;stroke-dasharray:5.0,5.0;" x1="2210.5" x2="2210.5" y1="87.4297" y2="1403.3906"/><line style="stroke:#A80036;stroke-width:1.0;stroke-dasharray:1.0,4.0;" x1="2210.5" x2="2210.5" y1="1403.3906" y2="1457"/><line style="stroke:#181818;stroke-width:0.5;stroke-dasharray:5.0,5.0;" x1="2210.5" x2="2210.5" y1="1457" y2="1837.8594"/><line style="stroke:#181818;stroke-width:0.5;stroke-dasharray:5.0,5.0;" x1="2443.5" x2="2443.5" y1="87.4297" y2="1403.3906"/><line style="stroke:#A80036;stroke-width:1.0;stroke-dasharray:1.0,4.0;" x1="2443.5" x2="2443.5" y1="1403.3906" y2="1457"/><line style="stroke:#181818;stroke-width:0.5;stroke-dasharray:5.0,5.0;" x1="2443.5" x2="2443.5" y1="1457" y2="1837.8594"/><line style="stroke:#181818;stroke-width:0.5;stroke-dasharray:5.0,5.0;" x1="2517.5" x2="2517.5" y1="87.4297" y2="1403.3906"/><line style="stroke:#A80036;stroke-width:1.0;stroke-dasharray:1.0,4.0;" x1="2517.5" x2="2517.5" y1="1403.3906" y2="1457"/><line style="stroke:#181818;stroke-width:0.5;stroke-dasharray:5.0,5.0;" x1="2517.5" x2="2517.5" y1="1457" y2="1837.8594"/><line style="stroke:#181818;stroke-width:0.5;stroke-dasharray:5.0,5.0;" x1="2592.5" x2="2592.5" y1="87.4297" y2="1403.3906"/><line style="stroke:#A80036;stroke-width:1.0;stroke-dasharray:1.0,4.0;" x1="2592.5" x2="2592.5" y1="1403.3906" y2="1457"/><line style="stroke:#181818;stroke-width:0.5;stroke-dasharray:5.0,5.0;" x1="2592.5" x2="2592.5" y1="1457" y2="1837.8594"/><rect fill="#E2E2F0" height="46.5938" rx="2.5" ry="2.5" style="stroke:#181818;stroke-width:0.5;" width="80" x="30" y="39.8359"/><text fill="#000000" font-family="sans-serif" font-size="14" lengthAdjust="spacing" textLength="54" x="43" y="59.8311">Invoker</text><text fill="#000000" font-family="sans-serif" font-size="14" lengthAdjust="spacing" textLength="66" x="37" y="76.1279">app logic</text><rect fill="#E2E2F0" height="46.5938" rx="2.5" ry="2.5" style="stroke:#181818;stroke-width:0.5;" width="80" x="30" y="1836.8594"/><text fill="#000000" font-family="sans-serif" font-size="14" lengthAdjust="spacing" textLength="54" x="43" y="1856.8545">Invoker</text><text fill="#000000" font-family="sans-serif" font-size="14" lengthAdjust="spacing" textLength="66" x="37" y="1873.1514">app logic</text><rect fill="#E2E2F0" height="46.5938" rx="2.5" ry="2.5" style="stroke:#181818;stroke-width:0.5;" width="68" x="199" y="39.8359"/><text fill="#000000" font-family="sans-serif" font-size="14" lengthAdjust="spacing" textLength="54" x="206" y="59.8311">Invoker</text><text fill="#000000" font-family="sans-serif" font-size="14" lengthAdjust="spacing" textLength="41" x="212.5" y="76.1279">client</text><rect fill="#E2E2F0" height="46.5938" rx="2.5" ry="2.5" style="stroke:#181818;stroke-width:0.5;" width="68" x="199" y="1836.8594"/><text fill="#000000" font-family="sans-serif" font-size="14" lengthAdjust="spacing" textLength="54" x="206" y="1856.8545">Invoker</text><text fill="#000000" font-family="sans-serif" font-size="14" lengthAdjust="spacing" textLength="41" x="212.5" y="1873.1514">client</text><rect fill="#E2E2F0" height="30.2969" rx="2.5" ry="2.5" style="stroke:#181818;stroke-width:0.5;" width="63" x="499.5" y="56.1328"/><text fill="#000000" font-family="sans-serif" font-size="14" lengthAdjust="spacing" textLength="49" x="506.5" y="76.1279">Broker</text><rect fill="#E2E2F0" height="30.2969" rx="2.5" ry="2.5" style="stroke:#181818;stroke-width:0.5;" width="63" x="499.5" y="1836.8594"/><text fill="#000000" font-family="sans-serif" font-size="14" lengthAdjust="spacing" textLength="49" x="506.5" y="1856.8545">Broker</text><rect fill="#E2E2F0" height="46.5938" rx="2.5" ry="2.5" style="stroke:#181818;stroke-width:0.5;" width="100" x="779" y="1836.8594"/><text fill="#000000" font-family="sans-serif" font-size="14" lengthAdjust="spacing" textLength="64" x="797" y="1856.8545">Executor</text><text fill="#000000" font-family="sans-serif" font-size="14" lengthAdjust="spacing" textLength="86" x="786" y="1873.1514">MQTT client</text><rect fill="#E2E2F0" height="30.2969" rx="2.5" ry="2.5" style="stroke:#181818;stroke-width:0.5;" width="78" x="1088" y="56.1328"/><text fill="#000000" font-family="sans-serif" font-size="14" lengthAdjust="spacing" textLength="64" x="1095" y="76.1279">Executor</text><rect fill="#E2E2F0" height="30.2969" rx="2.5" ry="2.5" style="stroke:#181818;stroke-width:0.5;" width="78" x="1088" y="1836.8594"/><text fill="#000000" font-family="sans-serif" font-size="14" lengthAdjust="spacing" textLength="64" x="1095" y="1856.8545">Executor</text><path d="M1359.5,61.1328 L1442.5,61.1328 C1447.5,61.1328 1447.5,74.2813 1447.5,74.2813 C1447.5,74.2813 1447.5,87.4297 1442.5,87.4297 L1359.5,87.4297 C1354.5,87.4297 1354.5,74.2813 1354.5,74.2813 C1354.5,74.2813 1354.5,61.1328 1359.5,61.1328 " fill="#E2E2F0" style="stroke:#181818;stroke-width:0.5;"/><path d="M1442.5,61.1328 C1437.5,61.1328 1437.5,74.2813 1437.5,74.2813 C1437.5,87.4297 1442.5,87.4297 1442.5,87.4297 " fill="none" style="stroke:#181818;stroke-width:0.5;"/><text fill="#000000" font-family="sans-serif" font-size="14" lengthAdjust="spacing" textLength="73" x="1359.5" y="79.1279">MsgQueue</text><path d="M1359.5,1836.8594 L1442.5,1836.8594 C1447.5,1836.8594 1447.5,1850.0078 1447.5,1850.0078 C1447.5,1850.0078 1447.5,1863.1563 1442.5,1863.1563 L1359.5,1863.1563 C1354.5,1863.1563 1354.5,1850.0078 1354.5,1850.0078 C1354.5,1850.0078 1354.5,1836.8594 1359.5,1836.8594 " fill="#E2E2F0" style="stroke:#181818;stroke-width:0.5;"/><path d="M1442.5,1836.8594 C1437.5,1836.8594 1437.5,1850.0078 1437.5,1850.0078 C1437.5,1863.1563 1442.5,1863.1563 1442.5,1863.1563 " fill="none" style="stroke:#181818;stroke-width:0.5;"/><text fill="#000000" font-family="sans-serif" font-size="14" lengthAdjust="spacing" textLength="73" x="1359.5" y="1854.8545">MsgQueue</text><rect fill="#E2E2F0" height="30.2969" rx="2.5" ry="2.5" style="stroke:#181818;stroke-width:0.5;" width="93" x="1553.5" y="1836.8594"/><text fill="#000000" font-family="sans-serif" font-size="14" lengthAdjust="spacing" textLength="79" x="1560.5" y="1856.8545">Dispatcher</text><text fill="#000000" font-family="sans-serif" font-size="14" lengthAdjust="spacing" textLength="83" x="1773.5" y="84.1279">Semaphore</text><ellipse cx="1818" cy="55.1328" fill="#E2E2F0" rx="12" ry="12" style="stroke:#181818;stroke-width:0.5;"/><line style="stroke:#181818;stroke-width:0.5;" x1="1806" x2="1830" y1="69.1328" y2="69.1328"/><text fill="#000000" font-family="sans-serif" font-size="14" lengthAdjust="spacing" textLength="83" x="1773.5" y="1849.8545">Semaphore</text><ellipse cx="1818" cy="1869.1563" fill="#E2E2F0" rx="12" ry="12" style="stroke:#181818;stroke-width:0.5;"/><line style="stroke:#181818;stroke-width:0.5;" x1="1806" x2="1830" y1="1883.1563" y2="1883.1563"/><rect fill="#E2E2F0" height="30.2969" rx="2.5" ry="2.5" style="stroke:#181818;stroke-width:0.5;" width="60" x="1872.5" y="1836.8594"/><text fill="#000000" font-family="sans-serif" font-size="14" lengthAdjust="spacing" textLength="46" x="1879.5" y="1856.8545">Ack'er</text><path d="M1965.5,61.1328 L2047.5,61.1328 C2052.5,61.1328 2052.5,74.2813 2052.5,74.2813 C2052.5,74.2813 2052.5,87.4297 2047.5,87.4297 L1965.5,87.4297 C1960.5,87.4297 1960.5,74.2813 1960.5,74.2813 C1960.5,74.2813 1960.5,61.1328 1965.5,61.1328 " fill="#E2E2F0" style="stroke:#181818;stroke-width:0.5;"/><path d="M2047.5,61.1328 C2042.5,61.1328 2042.5,74.2813 2042.5,74.2813 C2042.5,87.4297 2047.5,87.4297 2047.5,87.4297 " fill="none" style="stroke:#181818;stroke-width:0.5;"/><text fill="#000000" font-family="sans-serif" font-size="14" lengthAdjust="spacing" textLength="72" x="1965.5" y="79.1279">AckQueue</text><path d="M1965.5,1836.8594 L2047.5,1836.8594 C2052.5,1836.8594 2052.5,1850.0078 2052.5,1850.0078 C2052.5,1850.0078 2052.5,1863.1563 2047.5,1863.1563 L1965.5,1863.1563 C1960.5,1863.1563 1960.5,1850.0078 1960.5,1850.0078 C1960.5,1850.0078 1960.5,1836.8594 1965.5,1836.8594 " fill="#E2E2F0" style="stroke:#181818;stroke-width:0.5;"/><path d="M2047.5,1836.8594 C2042.5,1836.8594 2042.5,1850.0078 2042.5,1850.0078 C2042.5,1863.1563 2047.5,1863.1563 2047.5,1863.1563 " fill="none" style="stroke:#181818;stroke-width:0.5;"/><text fill="#000000" font-family="sans-serif" font-size="14" lengthAdjust="spacing" textLength="72" x="1965.5" y="1854.8545">AckQueue</text><rect fill="#E2E2F0" height="46.5938" rx="2.5" ry="2.5" style="stroke:#181818;stroke-width:0.5;" width="78" x="2171.5" y="39.8359"/><text fill="#000000" font-family="sans-serif" font-size="14" lengthAdjust="spacing" textLength="64" x="2178.5" y="59.8311">Executor</text><text fill="#000000" font-family="sans-serif" font-size="14" lengthAdjust="spacing" textLength="63" x="2179" y="76.1279">Thread 1</text><rect fill="#E2E2F0" height="46.5938" rx="2.5" ry="2.5" style="stroke:#181818;stroke-width:0.5;" width="78" x="2171.5" y="1836.8594"/><text fill="#000000" font-family="sans-serif" font-size="14" lengthAdjust="spacing" textLength="64" x="2178.5" y="1856.8545">Executor</text><text fill="#000000" font-family="sans-serif" font-size="14" lengthAdjust="spacing" textLength="63" x="2179" y="1873.1514">Thread 1</text><rect fill="#E2E2F0" height="46.5938" rx="2.5" ry="2.5" style="stroke:#181818;stroke-width:0.5;" width="78" x="2404.5" y="39.8359"/><text fill="#000000" font-family="sans-serif" font-size="14" lengthAdjust="spacing" textLength="64" x="2411.5" y="59.8311">Executor</text><text fill="#000000" font-family="sans-serif" font-size="14" lengthAdjust="spacing" textLength="62" x="2412.5" y="76.1279">Thread 2</text><rect fill="#E2E2F0" height="46.5938" rx="2.5" ry="2.5" style="stroke:#181818;stroke-width:0.5;" width="78" x="2404.5" y="1836.8594"/><text fill="#000000" font-family="sans-serif" font-size="14" lengthAdjust="spacing" textLength="64" x="2411.5" y="1856.8545">Executor</text><text fill="#000000" font-family="sans-serif" font-size="14" lengthAdjust="spacing" textLength="62" x="2412.5" y="1873.1514">Thread 2</text><text fill="#000000" font-family="sans-serif" font-size="14" lengthAdjust="spacing" textLength="44" x="2492.5" y="84.1279">Cache</text><path d="M2499.5,35.1328 C2499.5,25.1328 2517.5,25.1328 2517.5,25.1328 C2517.5,25.1328 2535.5,25.1328 2535.5,35.1328 L2535.5,61.1328 C2535.5,71.1328 2517.5,71.1328 2517.5,71.1328 C2517.5,71.1328 2499.5,71.1328 2499.5,61.1328 L2499.5,35.1328 " fill="#E2E2F0" style="stroke:#181818;stroke-width:1.5;"/><path d="M2499.5,35.1328 C2499.5,45.1328 2517.5,45.1328 2517.5,45.1328 C2517.5,45.1328 2535.5,45.1328 2535.5,35.1328 " fill="none" style="stroke:#181818;stroke-width:1.5;"/><text fill="#000000" font-family="sans-serif" font-size="14" lengthAdjust="spacing" textLength="44" x="2492.5" y="1849.8545">Cache</text><path d="M2499.5,1863.1563 C2499.5,1853.1563 2517.5,1853.1563 2517.5,1853.1563 C2517.5,1853.1563 2535.5,1853.1563 2535.5,1863.1563 L2535.5,1889.1563 C2535.5,1899.1563 2517.5,1899.1563 2517.5,1899.1563 C2517.5,1899.1563 2499.5,1899.1563 2499.5,1889.1563 L2499.5,1863.1563 " fill="#E2E2F0" style="stroke:#181818;stroke-width:1.5;"/><path d="M2499.5,1863.1563 C2499.5,1873.1563 2517.5,1873.1563 2517.5,1873.1563 C2517.5,1873.1563 2535.5,1873.1563 2535.5,1863.1563 " fill="none" style="stroke:#181818;stroke-width:1.5;"/><rect fill="#E2E2F0" height="46.5938" rx="2.5" ry="2.5" style="stroke:#181818;stroke-width:0.5;" width="80" x="2552.5" y="39.8359"/><text fill="#000000" font-family="sans-serif" font-size="14" lengthAdjust="spacing" textLength="64" x="2560.5" y="59.8311">Executor</text><text fill="#000000" font-family="sans-serif" font-size="14" lengthAdjust="spacing" textLength="66" x="2559.5" y="76.1279">app logic</text><rect fill="#E2E2F0" height="46.5938" rx="2.5" ry="2.5" style="stroke:#181818;stroke-width:0.5;" width="80" x="2552.5" y="1836.8594"/><text fill="#000000" font-family="sans-serif" font-size="14" lengthAdjust="spacing" textLength="64" x="2560.5" y="1856.8545">Executor</text><text fill="#000000" font-family="sans-serif" font-size="14" lengthAdjust="spacing" textLength="66" x="2559.5" y="1873.1514">app logic</text><rect fill="#005500" height="210.0625" style="stroke:#181818;stroke-width:1.0;" width="10" x="2205.5" y="1537.5313"/><path d="M2424,102.4297 L2424,127.4297 L2610,127.4297 L2610,112.4297 L2600,102.4297 L2424,102.4297 " fill="#FEFFDD" style="stroke:#181818;stroke-width:0.5;"/><path d="M2600,102.4297 L2600,112.4297 L2610,112.4297 L2600,102.4297 " fill="#FEFFDD" style="stroke:#181818;stroke-width:0.5;"/><text fill="#000000" font-family="sans-serif" font-size="13" lengthAdjust="spacing" textLength="165" x="2430" y="119.4966">cleared regularly by timer</text><path d="M10,139.5625 L150,139.5625 L150,146.6953 L140,156.6953 L10,156.6953 L10,139.5625 " fill="#EEEEEE" style="stroke:#000000;stroke-width:1.5;"/><rect fill="none" height="630.8438" style="stroke:#000000;stroke-width:1.5;" width="1942.5" x="10" y="139.5625"/><text fill="#000000" font-family="sans-serif" font-size="13" font-weight="bold" lengthAdjust="spacing" textLength="95" x="25" y="152.6294">Initialization</text><path d="M20,163.6953 L221,163.6953 L221,170.8281 L211,180.8281 L20,180.8281 L20,163.6953 " fill="#EEEEEE" style="stroke:#000000;stroke-width:1.5;"/><rect fill="none" height="208.1953" style="stroke:#000000;stroke-width:1.5;" width="552.5" x="20" y="163.6953"/><text fill="#000000" font-family="sans-serif" font-size="13" font-weight="bold" lengthAdjust="spacing" textLength="156" x="35" y="176.7622">Invoker initialization</text><polygon fill="#181818" points="221,197.9609,231,201.9609,221,205.9609,225,201.9609" style="stroke:#181818;stroke-width:1.0;"/><line style="stroke:#181818;stroke-width:1.0;" x1="70" x2="227" y1="201.9609" y2="201.9609"/><text fill="#000000" font-family="sans-serif" font-size="13" font-weight="bold" lengthAdjust="spacing" textLength="9" x="77" y="196.895">1</text><text fill="#000000" font-family="sans-serif" font-size="13" lengthAdjust="spacing" textLength="51" x="90" y="196.895">Initialize</text><polygon fill="#181818" points="519,272.4922,529,276.4922,519,280.4922,523,276.4922" style="stroke:#181818;stroke-width:1.0;"/><line style="stroke:#181818;stroke-width:1.0;" x1="233" x2="525" y1="276.4922" y2="276.4922"/><text fill="#000000" font-family="sans-serif" font-size="13" font-weight="bold" lengthAdjust="spacing" textLength="9" x="240" y="248.7271">2</text><text fill="#000000" font-family="sans-serif" font-size="13" lengthAdjust="spacing" textLength="37" x="253" y="226.0278">CONN</text><text fill="#000000" font-family="sans-serif" font-size="13" lengthAdjust="spacing" textLength="103" x="253" y="241.1606">CleanSession=0</text><text fill="#000000" font-family="sans-serif" font-size="13" lengthAdjust="spacing" textLength="120" x="253" y="256.2935">SessionExpiry=1hr</text><text fill="#000000" font-family="sans-serif" font-size="13" lengthAdjust="spacing" textLength="119" x="253" y="271.4263">ClientID=InvokerID</text><polygon fill="#181818" points="244,301.625,234,305.625,244,309.625,240,305.625" style="stroke:#181818;stroke-width:1.0;"/><line style="stroke:#181818;stroke-width:1.0;stroke-dasharray:2.0,2.0;" x1="238" x2="530" y1="305.625" y2="305.625"/><text fill="#000000" font-family="sans-serif" font-size="13" font-weight="bold" lengthAdjust="spacing" textLength="8" x="250" y="300.5591">3</text><text fill="#000000" font-family="sans-serif" font-size="13" lengthAdjust="spacing" textLength="63" x="262" y="300.5591">CONNACK</text><polygon fill="#181818" points="519,330.7578,529,334.7578,519,338.7578,523,334.7578" style="stroke:#181818;stroke-width:1.0;"/><line style="stroke:#181818;stroke-width:1.0;" x1="233" x2="525" y1="334.7578" y2="334.7578"/><text fill="#000000" font-family="sans-serif" font-size="13" font-weight="bold" lengthAdjust="spacing" textLength="9" x="240" y="329.6919">4</text><text fill="#000000" font-family="sans-serif" font-size="13" lengthAdjust="spacing" textLength="133" x="253" y="329.6919">SUB "response topic"</text><polygon fill="#181818" points="244,359.8906,234,363.8906,244,367.8906,240,363.8906" style="stroke:#181818;stroke-width:1.0;"/><line style="stroke:#181818;stroke-width:1.0;stroke-dasharray:2.0,2.0;" x1="238" x2="530" y1="363.8906" y2="363.8906"/><text fill="#000000" font-family="sans-serif" font-size="13" font-weight="bold" lengthAdjust="spacing" textLength="9" x="250" y="358.8247">5</text><text fill="#000000" font-family="sans-serif" font-size="13" lengthAdjust="spacing" textLength="51" x="263" y="358.8247">SUBACK</text><path d="M489.5,385.8906 L701.5,385.8906 L701.5,393.0234 L691.5,403.0234 L489.5,403.0234 L489.5,385.8906 " fill="#EEEEEE" style="stroke:#000000;stroke-width:1.5;"/><rect fill="none" height="377.5156" style="stroke:#000000;stroke-width:1.5;" width="1453" x="489.5" y="385.8906"/><text fill="#000000" font-family="sans-serif" font-size="13" font-weight="bold" lengthAdjust="spacing" textLength="167" x="504.5" y="398.9575">Executor initialization</text><polygon fill="#181818" points="1806,420.1563,1816,424.1563,1806,428.1563,1810,424.1563" style="stroke:#181818;stroke-width:1.0;"/><line style="stroke:#181818;stroke-width:1.0;" x1="1127" x2="1812" y1="424.1563" y2="424.1563"/><text fill="#000000" font-family="sans-serif" font-size="13" font-weight="bold" lengthAdjust="spacing" textLength="9" x="1134" y="419.0903">6</text><text fill="#000000" font-family="sans-serif" font-size="13" lengthAdjust="spacing" textLength="37" x="1147" y="419.0903">init(1)</text><polygon fill="#181818" points="890,449.2891,880,453.2891,890,457.2891,886,453.2891" style="stroke:#181818;stroke-width:1.0;"/><line style="stroke:#181818;stroke-width:1.0;" x1="884" x2="1126" y1="453.2891" y2="453.2891"/><text fill="#000000" font-family="sans-serif" font-size="13" font-weight="bold" lengthAdjust="spacing" textLength="9" x="896" y="448.2231">7</text><text fill="#000000" font-family="sans-serif" font-size="13" lengthAdjust="spacing" textLength="41" x="909" y="448.2231">create</text><rect fill="#E2E2F0" height="46.5938" rx="2.5" ry="2.5" style="stroke:#181818;stroke-width:0.5;" width="100" x="779" y="432.1563"/><text fill="#000000" font-family="sans-serif" font-size="14" lengthAdjust="spacing" textLength="64" x="797" y="452.1514">Executor</text><text fill="#000000" font-family="sans-serif" font-size="14" lengthAdjust="spacing" textLength="86" x="786" y="468.4482">MQTT client</text><polygon fill="#181818" points="1541.5,506.8828,1551.5,510.8828,1541.5,514.8828,1545.5,510.8828" style="stroke:#181818;stroke-width:1.0;"/><line style="stroke:#181818;stroke-width:1.0;" x1="1127" x2="1547.5" y1="510.8828" y2="510.8828"/><text fill="#000000" font-family="sans-serif" font-size="13" font-weight="bold" lengthAdjust="spacing" textLength="9" x="1134" y="505.8169">8</text><text fill="#000000" font-family="sans-serif" font-size="13" lengthAdjust="spacing" textLength="41" x="1147" y="505.8169">create</text><rect fill="#E2E2F0" height="30.2969" rx="2.5" ry="2.5" style="stroke:#181818;stroke-width:0.5;" width="93" x="1553.5" y="489.75"/><text fill="#000000" font-family="sans-serif" font-size="14" lengthAdjust="spacing" textLength="79" x="1560.5" y="509.7451">Dispatcher</text><polygon fill="#181818" points="1860.5,548.1797,1870.5,552.1797,1860.5,556.1797,1864.5,552.1797" style="stroke:#181818;stroke-width:1.0;"/><line style="stroke:#181818;stroke-width:1.0;" x1="1127" x2="1866.5" y1="552.1797" y2="552.1797"/><text fill="#000000" font-family="sans-serif" font-size="13" font-weight="bold" lengthAdjust="spacing" textLength="9" x="1134" y="547.1138">9</text><text fill="#000000" font-family="sans-serif" font-size="13" lengthAdjust="spacing" textLength="41" x="1147" y="547.1138">create</text><rect fill="#E2E2F0" height="30.2969" rx="2.5" ry="2.5" style="stroke:#181818;stroke-width:0.5;" width="60" x="1872.5" y="531.0469"/><text fill="#000000" font-family="sans-serif" font-size="14" lengthAdjust="spacing" textLength="46" x="1879.5" y="551.042">Ack'er</text><polygon fill="#181818" points="542,634.875,532,638.875,542,642.875,538,638.875" style="stroke:#181818;stroke-width:1.0;"/><line style="stroke:#181818;stroke-width:1.0;" x1="536" x2="828" y1="638.875" y2="638.875"/><text fill="#000000" font-family="sans-serif" font-size="13" font-weight="bold" lengthAdjust="spacing" textLength="19" x="548" y="611.1099">10</text><text fill="#000000" font-family="sans-serif" font-size="13" lengthAdjust="spacing" textLength="37" x="571" y="588.4106">CONN</text><text fill="#000000" font-family="sans-serif" font-size="13" lengthAdjust="spacing" textLength="103" x="571" y="603.5435">CleanSession=0</text><text fill="#000000" font-family="sans-serif" font-size="13" lengthAdjust="spacing" textLength="120" x="571" y="618.6763">SessionExpiry=1hr</text><text fill="#000000" font-family="sans-serif" font-size="13" lengthAdjust="spacing" textLength="127" x="571" y="633.8091">ClientID=executorId</text><polygon fill="#181818" points="817,664.0078,827,668.0078,817,672.0078,821,668.0078" style="stroke:#181818;stroke-width:1.0;"/><line style="stroke:#181818;stroke-width:1.0;stroke-dasharray:2.0,2.0;" x1="531" x2="823" y1="668.0078" y2="668.0078"/><text fill="#000000" font-family="sans-serif" font-size="13" font-weight="bold" lengthAdjust="spacing" textLength="18" x="538" y="662.9419">11</text><text fill="#000000" font-family="sans-serif" font-size="13" lengthAdjust="spacing" textLength="63" x="560" y="662.9419">CONNACK</text><polygon fill="#181818" points="840,693.1406,830,697.1406,840,701.1406,836,697.1406" style="stroke:#181818;stroke-width:1.0;"/><line style="stroke:#181818;stroke-width:1.0;" x1="834" x2="1126" y1="697.1406" y2="697.1406"/><text fill="#000000" font-family="sans-serif" font-size="13" font-weight="bold" lengthAdjust="spacing" textLength="18" x="846" y="692.0747">12</text><text fill="#000000" font-family="sans-serif" font-size="13" lengthAdjust="spacing" textLength="123" x="868" y="692.0747">SUB "request topic"</text><polygon fill="#181818" points="542,722.2734,532,726.2734,542,730.2734,538,726.2734" style="stroke:#181818;stroke-width:1.0;"/><line style="stroke:#181818;stroke-width:1.0;" x1="536" x2="828" y1="726.2734" y2="726.2734"/><text fill="#000000" font-family="sans-serif" font-size="13" font-weight="bold" lengthAdjust="spacing" textLength="17" x="548" y="721.2075">13</text><text fill="#000000" font-family="sans-serif" font-size="13" lengthAdjust="spacing" textLength="123" x="569" y="721.2075">SUB "request topic"</text><polygon fill="#181818" points="817,751.4063,827,755.4063,817,759.4063,821,755.4063" style="stroke:#181818;stroke-width:1.0;"/><line style="stroke:#181818;stroke-width:1.0;stroke-dasharray:2.0,2.0;" x1="531" x2="823" y1="755.4063" y2="755.4063"/><text fill="#000000" font-family="sans-serif" font-size="13" font-weight="bold" lengthAdjust="spacing" textLength="18" x="538" y="750.3403">14</text><text fill="#000000" font-family="sans-serif" font-size="13" lengthAdjust="spacing" textLength="51" x="560" y="750.3403">SUBACK</text><polygon fill="#181818" points="221,824.8047,231,828.8047,221,832.8047,225,828.8047" style="stroke:#181818;stroke-width:1.0;"/><line style="stroke:#181818;stroke-width:1.0;" x1="70" x2="227" y1="828.8047" y2="828.8047"/><text fill="#000000" font-family="sans-serif" font-size="13" font-weight="bold" lengthAdjust="spacing" textLength="18" x="77" y="808.606">15</text><text fill="#000000" font-family="sans-serif" font-size="13" lengthAdjust="spacing" textLength="108" x="99" y="793.4731">Invoke method 1</text><text fill="#000000" font-family="sans-serif" font-size="13" lengthAdjust="spacing" textLength="91" x="99" y="808.606">RPC request 1</text><text fill="#000000" font-family="sans-serif" font-size="13" lengthAdjust="spacing" textLength="78" x="99" y="823.7388">Timeout=5s</text><path d="M10,843.8047 L234,843.8047 L234,850.9375 L224,860.9375 L10,860.9375 L10,843.8047 " fill="#EEEEEE" style="stroke:#000000;stroke-width:1.5;"/><rect fill="none" height="977.0547" style="stroke:#000000;stroke-width:1.5;" width="2443.5" x="10" y="843.8047"/><text fill="#000000" font-family="sans-serif" font-size="13" font-weight="bold" lengthAdjust="spacing" textLength="179" x="25" y="856.8716">Handle invoker timeout</text><polygon fill="#181818" points="519,908.3359,529,912.3359,519,916.3359,523,912.3359" style="stroke:#181818;stroke-width:1.0;"/><line style="stroke:#181818;stroke-width:1.0;" x1="233" x2="525" y1="912.3359" y2="912.3359"/><text fill="#000000" font-family="sans-serif" font-size="13" font-weight="bold" lengthAdjust="spacing" textLength="18" x="240" y="892.1372">16</text><text fill="#000000" font-family="sans-serif" font-size="13" lengthAdjust="spacing" textLength="97" x="262" y="877.0044">PUB MQTT msg</text><text fill="#000000" font-family="sans-serif" font-size="13" lengthAdjust="spacing" textLength="118" x="262" y="892.1372">(RPC invocation 1)</text><text fill="#000000" font-family="sans-serif" font-size="13" lengthAdjust="spacing" textLength="252" x="262" y="907.27">PktId:1; CorId:1; DUP=0; MsgExpiry=5s</text><polygon fill="#181818" points="244,952.6016,234,956.6016,244,960.6016,240,956.6016" style="stroke:#181818;stroke-width:1.0;"/><line style="stroke:#181818;stroke-width:1.0;stroke-dasharray:2.0,2.0;" x1="238" x2="530" y1="956.6016" y2="956.6016"/><text fill="#000000" font-family="sans-serif" font-size="13" font-weight="bold" lengthAdjust="spacing" textLength="18" x="250" y="943.9692">17</text><text fill="#000000" font-family="sans-serif" font-size="13" lengthAdjust="spacing" textLength="51" x="272" y="936.4028">PUBACK</text><text fill="#000000" font-family="sans-serif" font-size="13" lengthAdjust="spacing" textLength="44" x="272" y="951.5356">PktId:1</text><path d="M20,971.6016 L200,971.6016 L200,978.7344 L190,988.7344 L20,988.7344 L20,971.6016 " fill="#EEEEEE" style="stroke:#000000;stroke-width:1.5;"/><rect fill="none" height="842.2578" style="stroke:#000000;stroke-width:1.5;" width="2423.5" x="20" y="971.6016"/><text fill="#000000" font-family="sans-serif" font-size="13" font-weight="bold" lengthAdjust="spacing" textLength="135" x="35" y="984.6685">Executor handling</text><polygon fill="#181818" points="817,1036.1328,827,1040.1328,817,1044.1328,821,1040.1328" style="stroke:#181818;stroke-width:1.0;"/><line style="stroke:#181818;stroke-width:1.0;" x1="531" x2="823" y1="1040.1328" y2="1040.1328"/><text fill="#000000" font-family="sans-serif" font-size="13" font-weight="bold" lengthAdjust="spacing" textLength="18" x="538" y="1019.9341">18</text><text fill="#000000" font-family="sans-serif" font-size="13" lengthAdjust="spacing" textLength="97" x="560" y="1004.8013">PUB MQTT msg</text><text fill="#000000" font-family="sans-serif" font-size="13" lengthAdjust="spacing" textLength="118" x="560" y="1019.9341">(RPC invocation 1)</text><text fill="#000000" font-family="sans-serif" font-size="13" lengthAdjust="spacing" textLength="252" x="560" y="1035.0669">PktId:1; CorId:1; DUP=0; MsgExpiry=3s</text><polygon fill="#181818" points="1115,1095.5313,1125,1099.5313,1115,1103.5313,1119,1099.5313" style="stroke:#181818;stroke-width:1.0;"/><line style="stroke:#181818;stroke-width:1.0;" x1="829" x2="1121" y1="1099.5313" y2="1099.5313"/><text fill="#000000" font-family="sans-serif" font-size="13" font-weight="bold" lengthAdjust="spacing" textLength="18" x="836" y="1079.3325">19</text><text fill="#000000" font-family="sans-serif" font-size="13" lengthAdjust="spacing" textLength="97" x="858" y="1064.1997">PUB MQTT msg</text><text fill="#000000" font-family="sans-serif" font-size="13" lengthAdjust="spacing" textLength="118" x="858" y="1079.3325">(RPC invocation 1)</text><text fill="#000000" font-family="sans-serif" font-size="13" lengthAdjust="spacing" textLength="252" x="858" y="1094.4653">PktId:1; CorId:1; DUP=0; MsgExpiry=3s</text><polygon fill="#181818" points="1389,1154.9297,1399,1158.9297,1389,1162.9297,1393,1158.9297" style="stroke:#181818;stroke-width:1.0;"/><line style="stroke:#181818;stroke-width:1.0;" x1="1127" x2="1395" y1="1158.9297" y2="1158.9297"/><text fill="#000000" font-family="sans-serif" font-size="13" font-weight="bold" lengthAdjust="spacing" textLength="19" x="1134" y="1138.731">20</text><text fill="#000000" font-family="sans-serif" font-size="13" lengthAdjust="spacing" textLength="109" x="1157" y="1123.5981">Enqueue request</text><text fill="#000000" font-family="sans-serif" font-size="13" lengthAdjust="spacing" textLength="153" x="1157" y="1138.731">PktId:1; CorId:1; DUP=0</text><text fill="#000000" font-family="sans-serif" font-size="13" lengthAdjust="spacing" textLength="227" x="1157" y="1153.8638">MsgExpiryTimestamp=UTCNow+3s</text><polygon fill="#181818" points="1412,1199.1953,1402,1203.1953,1412,1207.1953,1408,1203.1953" style="stroke:#181818;stroke-width:1.0;"/><line style="stroke:#181818;stroke-width:1.0;" x1="1406" x2="1599" y1="1203.1953" y2="1203.1953"/><text fill="#000000" font-family="sans-serif" font-size="13" font-weight="bold" lengthAdjust="spacing" textLength="18" x="1418" y="1190.563">21</text><text fill="#000000" font-family="sans-serif" font-size="13" lengthAdjust="spacing" textLength="86" x="1440" y="1182.9966">Read request</text><text fill="#000000" font-family="sans-serif" font-size="13" lengthAdjust="spacing" textLength="153" x="1440" y="1198.1294">PktId:1; CorId:1; DUP=0</text><polygon fill="#181818" points="1994.5,1258.5938,2004.5,1262.5938,1994.5,1266.5938,1998.5,1262.5938" style="stroke:#181818;stroke-width:1.0;"/><line style="stroke:#181818;stroke-width:1.0;" x1="1600" x2="2000.5" y1="1262.5938" y2="1262.5938"/><text fill="#000000" font-family="sans-serif" font-size="13" font-weight="bold" lengthAdjust="spacing" textLength="18" x="1607" y="1242.395">22</text><text fill="#000000" font-family="sans-serif" font-size="13" lengthAdjust="spacing" textLength="151" x="1629" y="1227.2622">Check if placeholder for</text><text fill="#000000" font-family="sans-serif" font-size="13" lengthAdjust="spacing" textLength="171" x="1629" y="1242.395">request PUBACK is present</text><text fill="#000000" font-family="sans-serif" font-size="13" lengthAdjust="spacing" textLength="98" x="1629" y="1257.5278">PktId:1; DUP=0</text><polygon fill="#181818" points="1611,1317.9922,1601,1321.9922,1611,1325.9922,1607,1321.9922" style="stroke:#181818;stroke-width:1.0;"/><line style="stroke:#181818;stroke-width:1.0;stroke-dasharray:2.0,2.0;" x1="1605" x2="2005.5" y1="1321.9922" y2="1321.9922"/><text fill="#000000" font-family="sans-serif" font-size="13" font-weight="bold" lengthAdjust="spacing" textLength="17" x="1617" y="1301.7935">23</text><text fill="#000000" font-family="sans-serif" font-size="13" lengthAdjust="spacing" textLength="149" x="1638" y="1286.6606">Placeholder for request</text><text fill="#000000" font-family="sans-serif" font-size="13" lengthAdjust="spacing" textLength="143" x="1638" y="1301.7935">PUBACK is not present</text><text fill="#000000" font-family="sans-serif" font-size="13" lengthAdjust="spacing" textLength="98" x="1638" y="1316.9263">PktId:1; DUP=0</text><polygon fill="#181818" points="1994.5,1362.2578,2004.5,1366.2578,1994.5,1370.2578,1998.5,1366.2578" style="stroke:#181818;stroke-width:1.0;"/><line style="stroke:#181818;stroke-width:1.0;" x1="1600" x2="2000.5" y1="1366.2578" y2="1366.2578"/><text fill="#000000" font-family="sans-serif" font-size="13" font-weight="bold" lengthAdjust="spacing" textLength="18" x="1607" y="1353.6255">24</text><text fill="#000000" font-family="sans-serif" font-size="13" lengthAdjust="spacing" textLength="251" x="1629" y="1346.0591">Create placeholder for request PUBACK</text><text fill="#000000" font-family="sans-serif" font-size="13" lengthAdjust="spacing" textLength="98" x="1629" y="1361.1919">PktId:1; DUP=0</text><polygon fill="#181818" points="1806,1391.3906,1816,1395.3906,1806,1399.3906,1810,1395.3906" style="stroke:#181818;stroke-width:1.0;"/><line style="stroke:#181818;stroke-width:1.0;" x1="1600" x2="1812" y1="1395.3906" y2="1395.3906"/><text fill="#000000" font-family="sans-serif" font-size="13" font-weight="bold" lengthAdjust="spacing" textLength="18" x="1607" y="1390.3247">25</text><text fill="#000000" font-family="sans-serif" font-size="13" lengthAdjust="spacing" textLength="172" x="1629" y="1390.3247">request thread semaphore</text><text fill="#000000" font-family="sans-serif" font-size="11" lengthAdjust="spacing" textLength="4" x="1162.25" y="1427.6011">&#160;</text><text fill="#0000FF" font-family="sans-serif" font-size="11" lengthAdjust="spacing" textLength="330" x="1166.25" y="1427.6011">Executor takes some time (say 4s) to acquire semaphore</text><text fill="#0000FF" font-family="sans-serif" font-size="11" lengthAdjust="spacing" textLength="162" x="1250.25" y="1440.4058">Request is expired by then..</text><polygon fill="#181818" points="1611,1489.2656,1601,1493.2656,1611,1497.2656,1607,1493.2656" style="stroke:#181818;stroke-width:1.0;"/><line style="stroke:#181818;stroke-width:1.0;stroke-dasharray:2.0,2.0;" x1="1605" x2="1817" y1="1493.2656" y2="1493.2656"/><text fill="#000000" font-family="sans-serif" font-size="13" font-weight="bold" lengthAdjust="spacing" textLength="18" x="1617" y="1480.6333">26</text><text fill="#000000" font-family="sans-serif" font-size="13" lengthAdjust="spacing" textLength="132" x="1639" y="1473.0669">semaphore acquired</text><text fill="#000000" font-family="sans-serif" font-size="13" lengthAdjust="spacing" textLength="86" x="1639" y="1488.1997">(1 remaining)</text><polygon fill="#181818" points="2193.5,1533.5313,2203.5,1537.5313,2193.5,1541.5313,2197.5,1537.5313" style="stroke:#181818;stroke-width:1.0;"/><line style="stroke:#181818;stroke-width:1.0;" x1="1600" x2="2199.5" y1="1537.5313" y2="1537.5313"/><text fill="#000000" font-family="sans-serif" font-size="13" font-weight="bold" lengthAdjust="spacing" textLength="18" x="1607" y="1524.8989">27</text><text fill="#000000" font-family="sans-serif" font-size="13" lengthAdjust="spacing" textLength="163" x="1629" y="1517.3325">Start request 1 execution</text><text fill="#000000" font-family="sans-serif" font-size="13" lengthAdjust="spacing" textLength="153" x="1629" y="1532.4653">PktId:1; CorId:1; DUP=0</text><path d="M35,1550.5313 L35,1575.5313 L267,1575.5313 L267,1560.5313 L257,1550.5313 L35,1550.5313 " fill="#FEFFDD" style="stroke:#181818;stroke-width:0.5;"/><path d="M257,1550.5313 L257,1560.5313 L267,1560.5313 L257,1550.5313 " fill="#FEFFDD" style="stroke:#181818;stroke-width:0.5;"/><text fill="#000000" font-family="sans-serif" font-size="13" lengthAdjust="spacing" textLength="112" x="90.5" y="1567.5981">Invoker times out</text><line style="stroke:#181818;stroke-width:2.0;" x1="77" x2="87" y1="1611.9297" y2="1621.9297"/><line style="stroke:#181818;stroke-width:2.0;" x1="77" x2="87" y1="1621.9297" y2="1611.9297"/><line style="stroke:#181818;stroke-width:1.0;" x1="82" x2="232" y1="1616.9297" y2="1616.9297"/><text fill="#000000" font-family="sans-serif" font-size="13" font-weight="bold" lengthAdjust="spacing" textLength="18" x="87" y="1604.2974">28</text><text fill="#000000" font-family="sans-serif" font-size="13" lengthAdjust="spacing" textLength="113" x="109" y="1596.731">Method 1 timeout</text><text fill="#000000" font-family="sans-serif" font-size="13" lengthAdjust="spacing" textLength="91" x="109" y="1611.8638">RPC request 1</text><line style="stroke:#181818;stroke-width:1.0;" x1="2215.5" x2="2257.5" y1="1661.1953" y2="1661.1953"/><line style="stroke:#181818;stroke-width:1.0;" x1="2257.5" x2="2257.5" y1="1661.1953" y2="1674.1953"/><line style="stroke:#181818;stroke-width:1.0;" x1="2216.5" x2="2257.5" y1="1674.1953" y2="1674.1953"/><polygon fill="#181818" points="2226.5,1670.1953,2216.5,1674.1953,2226.5,1678.1953,2222.5,1674.1953" style="stroke:#181818;stroke-width:1.0;"/><text fill="#000000" font-family="sans-serif" font-size="13" font-weight="bold" lengthAdjust="spacing" textLength="18" x="2222.5" y="1648.563">29</text><text fill="#800000" font-family="sans-serif" font-size="13" lengthAdjust="spacing" textLength="166" x="2244.5" y="1640.9966">Check if message expired</text><text fill="#800000" font-family="sans-serif" font-size="13" lengthAdjust="spacing" textLength="187" x="2244.5" y="1656.1294">(Message expired so discard)</text><polygon fill="#181818" points="2017.5,1714.4609,2007.5,1718.4609,2017.5,1722.4609,2013.5,1718.4609" style="stroke:#181818;stroke-width:1.0;"/><line style="stroke:#181818;stroke-width:1.0;" x1="2011.5" x2="2204.5" y1="1718.4609" y2="1718.4609"/><text fill="#000000" font-family="sans-serif" font-size="13" font-weight="bold" lengthAdjust="spacing" textLength="18" x="2023.5" y="1705.8286">30</text><text fill="#000000" font-family="sans-serif" font-size="13" lengthAdjust="spacing" textLength="82" x="2045.5" y="1698.2622">Enqueue ack</text><text fill="#000000" font-family="sans-serif" font-size="13" lengthAdjust="spacing" textLength="153" x="2045.5" y="1713.395">PktId:1; CorId:1; DUP=0</text><polygon fill="#181818" points="1829,1743.5938,1819,1747.5938,1829,1751.5938,1825,1747.5938" style="stroke:#181818;stroke-width:1.0;"/><line style="stroke:#181818;stroke-width:1.0;" x1="1823" x2="2209.5" y1="1747.5938" y2="1747.5938"/><text fill="#000000" font-family="sans-serif" font-size="13" font-weight="bold" lengthAdjust="spacing" textLength="17" x="1835" y="1742.5278">31</text><text fill="#000000" font-family="sans-serif" font-size="13" lengthAdjust="spacing" textLength="128" x="1856" y="1742.5278">Release semaphore</text><polygon fill="#181818" points="1994.5,1772.7266,2004.5,1776.7266,1994.5,1780.7266,1998.5,1776.7266" style="stroke:#181818;stroke-width:1.0;"/><line style="stroke:#181818;stroke-width:1.0;" x1="1902.5" x2="2000.5" y1="1776.7266" y2="1776.7266"/><text fill="#000000" font-family="sans-serif" font-size="13" font-weight="bold" lengthAdjust="spacing" textLength="17" x="1909.5" y="1771.6606">32</text><text fill="#000000" font-family="sans-serif" font-size="13" lengthAdjust="spacing" textLength="59" x="1930.5" y="1771.6606">Read ack</text><polygon fill="#181818" points="542,1801.8594,532,1805.8594,542,1809.8594,538,1805.8594" style="stroke:#181818;stroke-width:1.0;"/><line style="stroke:#181818;stroke-width:1.0;stroke-dasharray:2.0,2.0;" x1="536" x2="1901.5" y1="1805.8594" y2="1805.8594"/><text fill="#000000" font-family="sans-serif" font-size="13" font-weight="bold" lengthAdjust="spacing" textLength="16" x="548" y="1800.7935">33</text><text fill="#000000" font-family="sans-serif" font-size="13" lengthAdjust="spacing" textLength="208" x="568" y="1800.7935">PUBACK PktId:1; CorId:1; DUP=0</text><!--SRC=[hLPTJzim57tthxZg7aR5G0qRBzsAD0hIgWbMljxwuYIciKZiO3jRkr-_UsExIO1gqhHAgCRttkFZSp_SL6zWeNxg9s5OpOsJcQovSZ0Acol5wnfAlPRP2BW5oSizVbafXNBUYGcLGwetREXxRiYrTKaPGpjSRaJMEFtYxBYxKbStz_VGGnPLzhQhjxBdHZG2HbTsVKEhTlTv674XRSrTLWGYEN9rqcrXT2SgNXVQ-2Whgc7Sr-pfVOZX6SaLpiBzxYoqxBlAVM44po5f_Lpo5xSJxtR2MCuTJxd5a-OSMRVx6LFQ2T0_XO5iYW89RaGEHgoRafjo2-aMdAp4Nbs7ISMSneHnjAkcIX6OiRNHJOtb8HscNVxcJcgrsspJ3d9en2KSdO64QHSccAIz5FVcFwwlLsgETDMTi1OZPfDLN5vkQccsiwGmv48fNrpCmZcB2vR2KK0cbA_pxntitSCvZ8omjLQeazCrtgldZsPonoi6yb67b-m50MBYCOOi1ycOPPWDL9hghhNY0gr-DnfpRyfV6NoTjCPssJaGp3zh8WBzHHukwKb5MNeyWp1OgTP5NNf7lsNk8_Q4exzXTYalK0bNQ2ngMAdRvHmYLe9rZEMd6pSxjK7qRrpbfK1XVU4uR- -Ik4GoRRjNThrI1mH7lbcR6aZ6AxLySejycdo6ETsT5XSFozdaCs2x1w7mj2xlovR-Bewnb-alY99KQug9T_ulD3xQABFudv04-8o0byhFdYZtNW0Se160yc4Th-hPm_tyMlywH42MHyHRcZb_XVF-MCfKRON0R_a8TSapKUWonwG-qco9C5v-a1Pgx4qitJwmnoEeez0woo5EP8CnEnmSUlkn-jny-zLl8qPYRoFuzjyrXP_6DZuDZ1qV7yENHuqCCbrgCqlBHfpjAihn9u5lXwv4M-1mOFaMFjanTXToUswa4HqOCdY5T1iEnjiAoXjETPhbXL37z66C-4N9EgI0dMDv9KY-uZY_r7hih-GIE3o4TvF9wUbaGctjy57eUXNyFA5Qt9_vteCZFz2lWEdk2Q2BMWYzl24Rdd4L1qFeyvS3WZ5avRbD1tfMt6YjpdRbXTYMhqLKOoXPS3wu6ZfX0Y2NDkCc7qCuo5T6x1pyR_zTVO0NkkqDdCssbpVcX_aEj6qUUld3VZVGgCpsAXh6wXy0]--></g></svg>